<svg width="18" height="22" viewBox="0 0 18 22" fill="none" xmlns="http://www.w3.org/2000/svg">
<path d="M8.95057 1.75023C5.58239 1.75023 2.84511 4.48751 2.84511 7.85569V10.7965C2.84511 11.4172 2.58054 12.3636 2.26509 12.8927L1.09488 14.8363C0.372399 16.037 0.871012 17.37 2.19386 17.8178C6.57962 19.2831 11.3113 19.2831 15.6971 17.8178C16.9284 17.4107 17.4677 15.9556 16.7961 14.8363L15.6259 12.8927C15.3206 12.3636 15.056 11.4172 15.056 10.7965V7.85569C15.056 4.49769 12.3086 1.75023 8.95057 1.75023Z" stroke="black" stroke-width="1.5" stroke-miterlimit="10" stroke-linecap="round"/>
<path d="M10.8329 2.04533C10.5175 1.95375 10.1918 1.88252 9.85604 1.84181C8.87917 1.7197 7.943 1.79093 7.06788 2.04533C7.36298 1.29232 8.09564 0.763182 8.9504 0.763182C9.80517 0.763182 10.5378 1.29232 10.8329 2.04533Z" stroke="black" stroke-width="1.5" stroke-miterlimit="10" stroke-linecap="round" stroke-linejoin="round"/>
<path d="M12.0032 18.1841C12.0032 19.8631 10.6295 21.2368 8.9505 21.2368C8.11609 21.2368 7.34273 20.8908 6.79324 20.3414C6.24375 19.7919 5.89777 19.0185 5.89777 18.1841" stroke="black" stroke-width="1.5" stroke-miterlimit="10"/>
</svg>
