<svg width="22" height="22" viewBox="0 0 22 22" fill="none" xmlns="http://www.w3.org/2000/svg">
<path d="M4.86047 8.95349V6.90698C4.86047 3.52 5.88372 0.767442 11 0.767442C16.1163 0.767442 17.1395 3.52 17.1395 6.90698V8.95349" stroke="#292D32" stroke-width="1.5" stroke-linecap="round" stroke-linejoin="round"/>
<path d="M11 17.6512C12.4128 17.6512 13.5581 16.5058 13.5581 15.093C13.5581 13.6802 12.4128 12.5349 11 12.5349C9.58718 12.5349 8.44186 13.6802 8.44186 15.093C8.44186 16.5058 9.58718 17.6512 11 17.6512Z" stroke="#292D32" stroke-width="1.5" stroke-linecap="round" stroke-linejoin="round"/>
<path d="M16.1163 21.2326H5.88372C1.7907 21.2326 0.767442 20.2093 0.767442 16.1163V14.0698C0.767442 9.97674 1.7907 8.95349 5.88372 8.95349H16.1163C20.2093 8.95349 21.2326 9.97674 21.2326 14.0698V16.1163C21.2326 20.2093 20.2093 21.2326 16.1163 21.2326Z" stroke="#292D32" stroke-width="1.5" stroke-linecap="round" stroke-linejoin="round"/>
</svg>
