<svg width="342" height="311" viewBox="0 0 342 311" fill="none" xmlns="http://www.w3.org/2000/svg">
<path d="M50.0846 284.839C116.86 319.72 225.14 319.72 291.915 284.839C358.691 249.958 358.699 193.408 291.915 158.527C225.132 123.646 116.86 123.646 50.0846 158.527C-16.6909 193.408 -16.6988 249.958 50.0846 284.839Z" fill="#F5F5F5"/>
<path d="M223.186 276.018C243.323 276.018 259.647 268.24 259.647 258.645C259.647 249.05 243.323 241.272 223.186 241.272C203.049 241.272 186.725 249.05 186.725 258.645C186.725 268.24 203.049 276.018 223.186 276.018Z" fill="#EBEBEB"/>
<path d="M287.778 236.396C303.314 236.396 315.908 230.396 315.908 222.993C315.908 215.591 303.314 209.59 287.778 209.59C272.242 209.59 259.647 215.591 259.647 222.993C259.647 230.396 272.242 236.396 287.778 236.396Z" fill="#EBEBEB"/>
<path d="M87.2845 219.238C85.6961 210.853 79.8826 198.903 72.7905 192.241C65.9684 185.841 55.8425 183.61 51.808 186.564C47.7735 189.518 50.4182 195.902 58.2489 203.683C67.0882 212.457 84.0601 236.801 87.2845 250.593V219.238Z" fill="#004B6B"/>
<g opacity="0.2">
<path d="M87.2845 219.238C85.6961 210.853 79.8826 198.903 72.7905 192.241C65.9684 185.841 55.8425 183.61 51.808 186.564C47.7735 189.518 50.4182 195.902 58.2489 203.683C67.0882 212.457 84.0601 236.801 87.2845 250.593V219.238Z" fill="black"/>
</g>
<path d="M87.2845 239.414C87.185 239.412 87.0895 239.374 87.0162 239.307C86.943 239.239 86.8971 239.147 86.8874 239.048C84.886 217.928 70.1141 194.186 55.914 189.24C55.8148 189.204 55.7336 189.131 55.6877 189.036C55.6417 188.941 55.6346 188.832 55.6678 188.732C55.7038 188.632 55.777 188.551 55.8719 188.505C55.9668 188.459 56.0759 188.452 56.176 188.485C70.9003 193.607 85.6326 217.205 87.6974 238.977C87.7064 239.082 87.6741 239.186 87.6074 239.268C87.5406 239.349 87.4448 239.402 87.3401 239.414H87.2845Z" fill="white"/>
<path d="M87.2845 260.733C87.2845 260.733 84.5366 262.924 75.3716 262.067C66.2067 261.209 61.4812 254.659 61.4812 251.848C61.4812 249.037 69.9076 248.553 71.7342 241.581C69.8762 243.572 67.4044 244.883 64.7136 245.305C59.9485 246.202 56.1205 244.678 55.0324 235.999C57.381 236.343 59.777 236.144 62.0372 235.42C65.8096 234.205 66.707 232.132 65.7222 231.688C64.7374 231.243 59.4799 231.688 56.1125 230.409C52.7452 229.131 55.3183 211.599 57.5262 210.353C59.734 209.106 70.1776 212.044 72.2107 213.616C74.0215 215.013 76.5629 217.435 75.3875 222.557C76.7798 221.255 77.865 219.66 78.5643 217.888C79.5491 215.506 80.2638 216.062 81.741 216.975C82.6281 217.475 83.398 218.158 83.9993 218.98C84.6006 219.802 85.0193 220.742 85.2275 221.739C85.5849 223.962 85.0051 231.632 81.876 234.125C81.876 234.125 84.8781 234.506 87.3321 229.441C87.3321 229.441 92.0973 231.362 93.1774 234.475C94.2575 237.587 95.4329 252.824 87.2845 260.733Z" fill="#004B6B"/>
<path d="M88.0946 262.464C87.9975 262.463 87.904 262.427 87.8311 262.363C87.7582 262.299 87.7108 262.211 87.6975 262.115C85.6008 244.956 72.5523 222.414 59.7579 213.95C59.6694 213.891 59.608 213.799 59.5871 213.695C59.5663 213.59 59.5877 213.482 59.6467 213.394C59.7057 213.305 59.7974 213.244 59.9016 213.223C60.0059 213.202 60.1141 213.224 60.2026 213.283C73.1558 221.898 86.4109 244.67 88.4837 262.019C88.4972 262.124 88.4689 262.229 88.4049 262.312C88.3409 262.396 88.2464 262.45 88.1422 262.464H88.0946Z" fill="white"/>
<path d="M88.8966 264.862C88.4227 264.534 88.0323 264.099 87.7565 263.593C87.4806 263.087 87.3271 262.524 87.3082 261.948V72.2493C87.3406 71.6524 87.5136 71.0715 87.8131 70.5541C88.1126 70.0367 88.5301 69.5973 89.0316 69.2717L208.16 0.494078C208.658 0.18183 209.232 0.0111946 209.819 0.000532248C210.407 -0.0101301 210.986 0.139582 211.495 0.433563C212.004 0.727545 212.423 1.15467 212.707 1.66899C212.991 2.18331 213.13 2.76536 213.108 3.35253L92.2322 264.798C91.7204 265.07 91.1515 265.218 90.572 265.229C89.9924 265.24 89.4184 265.114 88.8966 264.862Z" fill="#E0E0E0"/>
<path d="M90.5088 75.8542L138.899 44.1967L135.674 42.3308L89.0078 69.2718C88.5063 69.5973 88.0888 70.0367 87.7893 70.5541C87.4898 71.0716 87.3168 71.6524 87.2844 72.2493V73.9882L90.5088 75.8542Z" fill="#37474F"/>
<path opacity="0.2" d="M90.5088 75.8542L138.899 44.1967L135.674 42.3308L89.0078 69.2718C88.5063 69.5973 88.0888 70.0367 87.7893 70.5541C87.4898 71.0716 87.3168 71.6524 87.2844 72.2493V73.9882L90.5088 75.8542Z" fill="#37474F"/>
<path d="M106.671 81.436L87.7848 70.5739C87.4771 71.086 87.3049 71.668 87.2844 72.2651V261.932C87.264 262.518 87.4036 263.099 87.6884 263.612C87.9732 264.126 88.3924 264.551 88.901 264.844C89.4096 265.138 89.9884 265.287 90.5753 265.276C91.1621 265.265 91.735 265.094 92.2323 264.782L106.671 256.485V81.436Z" fill="#263238"/>
<path opacity="0.4" d="M106.671 81.436L87.7848 70.5739C87.4771 71.086 87.3049 71.668 87.2844 72.2651V261.932C87.264 262.518 87.4036 263.099 87.6884 263.612C87.9732 264.126 88.3924 264.551 88.901 264.844C89.4096 265.138 89.9884 265.287 90.5753 265.276C91.1621 265.265 91.735 265.094 92.2323 264.782L106.671 256.485V81.436Z" fill="#263238"/>
<path d="M92.2323 264.798L211.361 196.02C211.862 195.695 212.28 195.256 212.579 194.738C212.879 194.221 213.052 193.64 213.084 193.043V3.35245C213.084 2.25671 212.29 1.81206 211.361 2.35993L92.2323 71.1376C91.7307 71.4631 91.3132 71.9025 91.0138 72.42C90.7143 72.9374 90.5413 73.5182 90.5089 74.1152V263.806C90.5089 264.901 91.2792 265.346 92.2323 264.798Z" fill="#455A64"/>
<path opacity="0.1" d="M92.2323 264.798L211.361 196.02C211.862 195.695 212.28 195.256 212.579 194.738C212.879 194.221 213.052 193.64 213.084 193.043V3.35245C213.084 2.25671 212.29 1.81206 211.361 2.35993L92.2323 71.1376C91.7307 71.4631 91.3132 71.9025 91.0138 72.42C90.7143 72.9374 90.5413 73.5182 90.5089 74.1152V263.806C90.5089 264.901 91.2792 265.346 92.2323 264.798Z" fill="#455A64"/>
<path d="M100.404 117.929L128.995 101.413C130.893 100.318 132.434 101.096 132.434 103.152C132.349 104.307 131.994 105.425 131.396 106.417C130.799 107.409 129.976 108.246 128.995 108.861L100.404 125.377C98.4984 126.473 96.9656 125.694 96.9656 123.638C97.0486 122.483 97.4034 121.364 98.001 120.372C98.5985 119.379 99.4221 118.543 100.404 117.929Z" fill="#004B6B"/>
<path d="M100.404 129.649L119.33 118.723C121.228 117.627 122.769 118.406 122.769 120.462C122.684 121.617 122.328 122.735 121.731 123.727C121.134 124.719 120.311 125.556 119.33 126.171L100.404 137.097C98.4984 138.192 96.9656 137.414 96.9656 135.358C97.0486 134.203 97.4034 133.083 98.001 132.091C98.5985 131.099 99.4221 130.262 100.404 129.649Z" fill="#004B6B"/>
<path d="M98.3396 149.706L102.041 147.57C102.835 147.133 103.414 147.49 103.414 148.364V152.636C103.389 153.113 103.251 153.577 103.012 153.991C102.773 154.405 102.441 154.756 102.041 155.018L98.3396 157.122C97.5454 157.566 96.9656 157.209 96.9656 156.328V152.056C96.9969 151.584 97.1372 151.127 97.3757 150.719C97.6141 150.311 97.9441 149.964 98.3396 149.706Z" fill="#004B6B"/>
<path opacity="0.2" d="M98.3396 149.706L102.041 147.57C102.835 147.133 103.414 147.49 103.414 148.364V152.636C103.389 153.113 103.251 153.577 103.012 153.991C102.773 154.405 102.441 154.756 102.041 155.018L98.3396 157.122C97.5454 157.566 96.9656 157.209 96.9656 156.328V152.056C96.9969 151.584 97.1372 151.127 97.3757 150.719C97.6141 150.311 97.9441 149.964 98.3396 149.706Z" fill="black"/>
<path d="M98.3396 164.609L102.041 162.473C102.835 162.029 103.414 162.386 103.414 163.267V167.539C103.387 168.016 103.248 168.479 103.01 168.893C102.771 169.306 102.439 169.659 102.041 169.921L98.3396 172.057C97.5454 172.494 96.9656 172.136 96.9656 171.263V166.991C96.9902 166.514 97.1275 166.049 97.3663 165.635C97.6051 165.221 97.9386 164.869 98.3396 164.609Z" fill="#004B6B"/>
<g opacity="0.2">
<path d="M98.3396 164.609L102.041 162.473C102.835 162.029 103.414 162.386 103.414 163.267V167.539C103.387 168.016 103.248 168.479 103.01 168.893C102.771 169.306 102.439 169.659 102.041 169.921L98.3396 172.057C97.5454 172.494 96.9656 172.136 96.9656 171.263V166.991C96.9902 166.514 97.1275 166.049 97.3663 165.635C97.6051 165.221 97.9386 164.869 98.3396 164.609Z" fill="black"/>
</g>
<path d="M108.362 160.687L130.727 147.768C131.68 147.22 132.45 147.609 132.45 148.641C132.407 149.219 132.228 149.777 131.929 150.273C131.63 150.768 131.218 151.186 130.727 151.492L108.362 164.411C107.409 164.959 106.639 164.569 106.639 163.537C106.682 162.96 106.861 162.401 107.16 161.906C107.459 161.411 107.871 160.993 108.362 160.687Z" fill="#004B6B"/>
<path opacity="0.2" d="M108.362 160.687L130.727 147.768C131.68 147.22 132.45 147.609 132.45 148.641C132.407 149.219 132.228 149.777 131.929 150.273C131.63 150.768 131.218 151.186 130.727 151.492L108.362 164.411C107.409 164.959 106.639 164.569 106.639 163.537C106.682 162.96 106.861 162.401 107.16 161.906C107.459 161.411 107.871 160.993 108.362 160.687Z" fill="black"/>
<path d="M98.3396 179.505L102.041 177.369C102.835 176.924 103.414 177.282 103.414 178.163V182.435C103.387 182.912 103.249 183.375 103.011 183.789C102.772 184.203 102.44 184.555 102.041 184.817L98.3396 186.953C97.5454 187.39 96.9656 187.032 96.9656 186.159V181.887C96.9902 181.41 97.1275 180.945 97.3663 180.531C97.6051 180.117 97.9386 179.765 98.3396 179.505Z" fill="#E0E0E0"/>
<path d="M108.362 175.583L130.727 162.68C131.68 162.132 132.45 162.521 132.45 163.553C132.408 164.131 132.23 164.69 131.931 165.185C131.631 165.681 131.218 166.098 130.727 166.404L108.362 179.322C107.409 179.87 106.639 179.481 106.639 178.449C106.68 177.869 106.857 177.307 107.156 176.809C107.456 176.311 107.869 175.891 108.362 175.583Z" fill="#F0F0F0"/>
<path d="M98.3396 194.44L102.041 192.304C102.835 191.86 103.414 192.217 103.414 193.098V197.37C103.387 197.847 103.249 198.311 103.011 198.724C102.772 199.138 102.44 199.49 102.041 199.752L98.3396 201.888C97.5454 202.325 96.9656 201.968 96.9656 201.094V196.822C96.9902 196.345 97.1275 195.88 97.3663 195.466C97.6051 195.052 97.9386 194.701 98.3396 194.44Z" fill="#E0E0E0"/>
<path d="M108.362 190.518L130.727 177.607C131.68 177.051 132.45 177.448 132.45 178.473C132.408 179.051 132.23 179.612 131.931 180.108C131.631 180.605 131.219 181.024 130.727 181.331L108.362 194.242C107.409 194.79 106.639 194.401 106.639 193.368C106.682 192.791 106.861 192.233 107.16 191.737C107.459 191.242 107.871 190.824 108.362 190.518Z" fill="#F0F0F0"/>
<path d="M98.3396 209.336L102.041 207.2C102.835 206.756 103.414 207.113 103.414 207.994V212.266C103.387 212.743 103.249 213.207 103.011 213.62C102.772 214.034 102.44 214.386 102.041 214.648L98.3396 216.784C97.5454 217.221 96.9656 216.864 96.9656 215.99V211.718C96.9902 211.241 97.1275 210.776 97.3663 210.362C97.6051 209.948 97.9386 209.597 98.3396 209.336Z" fill="#E0E0E0"/>
<path d="M108.362 205.414L130.727 192.503C131.68 191.947 132.45 192.344 132.45 193.368C132.408 193.947 132.23 194.507 131.931 195.004C131.631 195.501 131.219 195.92 130.727 196.227L108.362 209.138C107.409 209.686 106.639 209.296 106.639 208.264C106.682 207.687 106.861 207.128 107.16 206.633C107.459 206.138 107.871 205.72 108.362 205.414Z" fill="#F0F0F0"/>
<path d="M98.6811 223.994L114.565 214.807C115.518 214.259 116.288 214.648 116.288 215.68C116.245 216.257 116.067 216.816 115.767 217.311C115.468 217.807 115.056 218.224 114.565 218.531L98.6811 227.718C97.736 228.265 96.9656 227.876 96.9656 226.852C97.0073 226.275 97.1843 225.715 97.4823 225.218C97.7803 224.722 98.191 224.302 98.6811 223.994Z" fill="#004B6B"/>
<path d="M98.6811 231.441L130.727 212.949C131.68 212.401 132.45 212.79 132.45 213.814C132.408 214.393 132.23 214.953 131.931 215.45C131.631 215.947 131.219 216.366 130.727 216.673L98.6811 235.165C97.736 235.713 96.9656 235.324 96.9656 234.3C97.0073 233.722 97.1843 233.163 97.4823 232.666C97.7803 232.17 98.191 231.75 98.6811 231.441Z" fill="#004B6B"/>
<path opacity="0.8" d="M98.6811 231.441L130.727 212.949C131.68 212.401 132.45 212.79 132.45 213.814C132.408 214.393 132.23 214.953 131.931 215.45C131.631 215.947 131.219 216.366 130.727 216.673L98.6811 235.165C97.736 235.713 96.9656 235.324 96.9656 234.3C97.0073 233.722 97.1843 233.163 97.4823 232.666C97.7803 232.17 98.191 231.75 98.6811 231.441Z" fill="white"/>
<path d="M98.6811 231.441L121.053 218.531C121.999 217.983 122.769 218.372 122.769 219.404C122.726 219.98 122.548 220.538 122.25 221.034C121.953 221.529 121.542 221.947 121.053 222.255L98.6811 235.165C97.736 235.713 96.9656 235.324 96.9656 234.3C97.0073 233.722 97.1843 233.163 97.4823 232.666C97.7803 232.17 98.191 231.75 98.6811 231.441Z" fill="#004B6B"/>
<path d="M98.6811 238.905L114.565 229.718C115.518 229.171 116.288 229.56 116.288 230.592C116.245 231.169 116.067 231.728 115.767 232.223C115.468 232.718 115.056 233.136 114.565 233.442L98.6811 242.629C97.736 243.177 96.9656 242.788 96.9656 241.764C97.0073 241.186 97.1843 240.626 97.4823 240.13C97.7803 239.633 98.191 239.214 98.6811 238.905Z" fill="#004B6B"/>
<path d="M108.362 145.783L130.727 132.872C131.68 132.324 132.45 132.714 132.45 133.746C132.407 134.323 132.228 134.882 131.929 135.377C131.63 135.872 131.218 136.29 130.727 136.596L108.362 149.507C107.409 150.055 106.639 149.666 106.639 148.641C106.681 148.063 106.859 147.503 107.158 147.006C107.458 146.509 107.87 146.09 108.362 145.783Z" fill="#004B6B"/>
<path opacity="0.2" d="M108.362 145.783L130.727 132.872C131.68 132.324 132.45 132.714 132.45 133.746C132.407 134.323 132.228 134.882 131.929 135.377C131.63 135.872 131.218 136.29 130.727 136.596L108.362 149.507C107.409 150.055 106.639 149.666 106.639 148.641C106.681 148.063 106.859 147.503 107.158 147.006C107.458 146.509 107.87 146.09 108.362 145.783Z" fill="black"/>
<path d="M98.6811 238.905L114.565 229.718C115.518 229.171 116.288 229.56 116.288 230.592C116.245 231.169 116.067 231.728 115.767 232.223C115.468 232.718 115.056 233.136 114.565 233.442L98.6811 242.629C97.736 243.177 96.9656 242.788 96.9656 241.764C97.0073 241.186 97.1843 240.626 97.4823 240.13C97.7803 239.633 98.191 239.214 98.6811 238.905Z" fill="#004B6B"/>
<path d="M98.6811 246.329L130.727 227.837C131.68 227.289 132.45 227.678 132.45 228.702C132.408 229.281 132.23 229.841 131.931 230.338C131.631 230.834 131.219 231.254 130.727 231.561L98.6811 250.022C97.736 250.577 96.9656 250.18 96.9656 249.156C97.0122 248.584 97.1914 248.031 97.4892 247.54C97.787 247.049 98.1951 246.635 98.6811 246.329Z" fill="#004B6B"/>
<path opacity="0.8" d="M98.6811 246.329L130.727 227.837C131.68 227.289 132.45 227.678 132.45 228.702C132.408 229.281 132.23 229.841 131.931 230.338C131.631 230.834 131.219 231.254 130.727 231.561L98.6811 250.022C97.736 250.577 96.9656 250.18 96.9656 249.156C97.0122 248.584 97.1914 248.031 97.4892 247.54C97.787 247.049 98.1951 246.635 98.6811 246.329Z" fill="white"/>
<path d="M98.6811 246.329L127.502 229.655C128.455 229.107 129.226 229.496 129.226 230.528C129.182 231.106 129.004 231.664 128.705 232.16C128.405 232.655 127.993 233.073 127.502 233.379L98.6811 250.053C97.736 250.609 96.9656 250.212 96.9656 249.188C97.0073 248.61 97.1843 248.051 97.4823 247.554C97.7803 247.057 98.191 246.638 98.6811 246.329Z" fill="#004B6B"/>
<path d="M211.377 2.35993L138.899 44.1966V237.857L211.377 196.028C211.878 195.703 212.296 195.263 212.595 194.746C212.895 194.229 213.068 193.648 213.1 193.051V3.35245C213.092 2.28847 212.298 1.81206 211.377 2.35993Z" fill="#EBEBEB"/>
<path opacity="0.6" d="M211.377 2.35993L138.899 44.1966V237.857L211.377 196.028C211.878 195.703 212.296 195.263 212.595 194.746C212.895 194.229 213.068 193.648 213.1 193.051V3.35245C213.092 2.28847 212.298 1.81206 211.377 2.35993Z" fill="#FAFAFA"/>
<path d="M138.899 51.6445V66.5402L132.45 73.9881H138.899V88.8838L206.643 49.7785V12.5392L138.899 51.6445Z" fill="#004B6B"/>
<g opacity="0.6">
<path d="M147.762 52.1607L175.209 36.2804C176.536 35.4864 177.592 36.1375 177.592 37.6699C177.548 38.5025 177.31 39.3133 176.896 40.0373C176.482 40.7612 175.905 41.3781 175.209 41.8385L147.762 57.6791C146.428 58.4731 145.379 57.822 145.379 56.2896C145.427 55.4634 145.668 54.6598 146.081 53.9429C146.495 53.2261 147.071 52.6158 147.762 52.1607Z" fill="white"/>
</g>
<path d="M146.213 64.2217L199.337 33.5568C199.813 33.2868 200.194 33.4774 200.194 33.9935C200.174 34.2824 200.085 34.5623 199.936 34.8106C199.787 35.059 199.582 35.2687 199.337 35.4227L146.213 66.0479C145.737 66.3179 145.356 66.1273 145.356 65.6112C145.382 65.3293 145.473 65.0572 145.622 64.8162C145.771 64.5752 145.973 64.3718 146.213 64.2217Z" fill="#004B6B"/>
<path d="M146.213 64.2217L199.337 33.5568C199.813 33.2868 200.194 33.4774 200.194 33.9935C200.174 34.2824 200.085 34.5623 199.936 34.8106C199.787 35.059 199.582 35.2687 199.337 35.4227L146.213 66.0479C145.737 66.3179 145.356 66.1273 145.356 65.6112C145.382 65.3293 145.473 65.0572 145.622 64.8162C145.771 64.5752 145.973 64.3718 146.213 64.2217Z" fill="#004B6B"/>
<path opacity="0.6" d="M146.213 64.2217L199.337 33.5568C199.813 33.2868 200.194 33.4774 200.194 33.9935C200.174 34.2824 200.085 34.5623 199.936 34.8106C199.787 35.059 199.582 35.2687 199.337 35.4227L146.213 66.0479C145.737 66.3179 145.356 66.1273 145.356 65.6112C145.382 65.3293 145.473 65.0572 145.622 64.8162C145.771 64.5752 145.973 64.3718 146.213 64.2217Z" fill="white"/>
<path d="M146.213 69.7799L199.337 39.115C199.813 38.8371 200.194 39.0356 200.194 39.5517C200.174 39.8395 200.085 40.1183 199.936 40.3654C199.787 40.6124 199.582 40.8207 199.337 40.973L146.213 71.6379C145.737 71.9158 145.356 71.7173 145.356 71.2012C145.376 70.9134 145.465 70.6345 145.614 70.3875C145.763 70.1404 145.968 69.9322 146.213 69.7799Z" fill="#004B6B"/>
<path opacity="0.6" d="M146.213 69.7799L199.337 39.115C199.813 38.8371 200.194 39.0356 200.194 39.5517C200.174 39.8395 200.085 40.1183 199.936 40.3654C199.787 40.6124 199.582 40.8207 199.337 40.973L146.213 71.6379C145.737 71.9158 145.356 71.7173 145.356 71.2012C145.376 70.9134 145.465 70.6345 145.614 70.3875C145.763 70.1404 145.968 69.9322 146.213 69.7799Z" fill="white"/>
<path opacity="0.6" d="M146.213 75.338L199.337 44.6731C199.813 44.4031 200.194 44.5937 200.194 45.1098C200.174 45.3987 200.085 45.6786 199.936 45.927C199.787 46.1753 199.582 46.385 199.337 46.5391L146.213 77.204C145.737 77.4739 145.356 77.2834 145.356 76.7672C145.376 76.4784 145.464 76.1984 145.614 75.9501C145.763 75.7018 145.968 75.4921 146.213 75.338Z" fill="white"/>
<path d="M148.215 90.9802L151.939 88.8363C152.734 88.3917 153.313 88.749 153.313 89.6303V93.9021C153.287 94.379 153.149 94.843 152.91 95.2568C152.672 95.6706 152.339 96.0225 151.939 96.2842L148.238 98.4201C147.444 98.8568 146.865 98.4995 146.865 97.6261V93.3622C146.886 92.887 147.02 92.4236 147.255 92.0097C147.489 91.5959 147.818 91.2431 148.215 90.9802Z" fill="#004B6B"/>
<path opacity="0.2" d="M148.215 90.9802L151.939 88.8363C152.734 88.3917 153.313 88.749 153.313 89.6303V93.9021C153.287 94.379 153.149 94.843 152.91 95.2568C152.672 95.6706 152.339 96.0225 151.939 96.2842L148.238 98.4201C147.444 98.8568 146.865 98.4995 146.865 97.6261V93.3622C146.886 92.887 147.02 92.4236 147.255 92.0097C147.489 91.5959 147.818 91.2431 148.215 90.9802Z" fill="white"/>
<path d="M158.237 87.0577L180.602 74.139C181.555 73.5912 182.325 73.9802 182.325 75.0125C182.282 75.5895 182.103 76.1483 181.804 76.6435C181.505 77.1388 181.093 77.5565 180.602 77.863L158.237 90.7816C157.284 91.3295 156.514 90.9404 156.514 89.9082C156.557 89.3311 156.736 88.7723 157.035 88.2771C157.334 87.7819 157.746 87.3641 158.237 87.0577Z" fill="#004B6B"/>
<path opacity="0.8" d="M158.237 87.0577L180.602 74.139C181.555 73.5912 182.325 73.9802 182.325 75.0125C182.282 75.5895 182.103 76.1483 181.804 76.6435C181.505 77.1388 181.093 77.5565 180.602 77.863L158.237 90.7816C157.284 91.3295 156.514 90.9404 156.514 89.9082C156.557 89.3311 156.736 88.7723 157.035 88.2771C157.334 87.7819 157.746 87.3641 158.237 87.0577Z" fill="white"/>
<path d="M147.698 104.32L204.086 71.7649C204.562 71.487 204.944 71.6855 204.944 72.1936C204.924 72.4827 204.836 72.7629 204.687 73.0113C204.537 73.2597 204.332 73.4693 204.086 73.6229L147.698 106.178C147.222 106.455 146.841 106.257 146.841 105.741C146.861 105.453 146.95 105.174 147.099 104.927C147.248 104.68 147.453 104.472 147.698 104.32Z" fill="#004B6B"/>
<path d="M147.698 109.902L204.086 77.3469C204.562 77.077 204.944 77.2675 204.944 77.7837C204.923 78.0725 204.835 78.3525 204.686 78.6008C204.537 78.8491 204.331 79.0588 204.086 79.2129L147.698 111.768C147.222 112.038 146.841 111.847 146.841 111.331C146.861 111.042 146.95 110.762 147.099 110.514C147.248 110.265 147.453 110.056 147.698 109.902Z" fill="#004B6B"/>
<path d="M147.698 115.491L204.086 82.9367C204.562 82.6588 204.944 82.8573 204.944 83.3655C204.924 83.6545 204.836 83.9347 204.687 84.1831C204.537 84.4316 204.332 84.6412 204.086 84.7947L147.698 117.349C147.222 117.627 146.841 117.429 146.841 116.921C146.861 116.632 146.949 116.351 147.098 116.103C147.247 115.855 147.453 115.645 147.698 115.491Z" fill="#004B6B"/>
<path d="M147.698 121.089L204.086 88.5344C204.562 88.2645 204.944 88.455 204.944 88.9712C204.923 89.26 204.835 89.54 204.686 89.7883C204.537 90.0366 204.331 90.2463 204.086 90.4004L147.698 122.955C147.222 123.225 146.841 123.034 146.841 122.518C146.861 122.229 146.95 121.95 147.099 121.701C147.248 121.453 147.453 121.243 147.698 121.089Z" fill="#004B6B"/>
<path d="M147.698 104.32L204.086 71.7649C204.562 71.487 204.944 71.6855 204.944 72.1936C204.924 72.4827 204.836 72.7629 204.687 73.0113C204.537 73.2597 204.332 73.4693 204.086 73.6229L147.698 106.178C147.222 106.455 146.841 106.257 146.841 105.741C146.861 105.453 146.95 105.174 147.099 104.927C147.248 104.68 147.453 104.472 147.698 104.32Z" fill="#E0E0E0"/>
<path d="M147.698 109.902L204.086 77.3469C204.562 77.077 204.944 77.2675 204.944 77.7837C204.923 78.0725 204.835 78.3525 204.686 78.6008C204.537 78.8491 204.331 79.0588 204.086 79.2129L147.698 111.768C147.222 112.038 146.841 111.847 146.841 111.331C146.861 111.042 146.95 110.762 147.099 110.514C147.248 110.265 147.453 110.056 147.698 109.902Z" fill="#E0E0E0"/>
<path d="M147.698 115.491L204.086 82.9367C204.562 82.6588 204.944 82.8573 204.944 83.3655C204.924 83.6545 204.836 83.9347 204.687 84.1831C204.537 84.4316 204.332 84.6412 204.086 84.7947L147.698 117.349C147.222 117.627 146.841 117.429 146.841 116.921C146.861 116.632 146.949 116.351 147.098 116.103C147.247 115.855 147.453 115.645 147.698 115.491Z" fill="#E0E0E0"/>
<path d="M147.698 121.089L204.086 88.5344C204.562 88.2645 204.944 88.455 204.944 88.9712C204.923 89.26 204.835 89.54 204.686 89.7883C204.537 90.0366 204.331 90.2463 204.086 90.4004L147.698 122.955C147.222 123.225 146.841 123.034 146.841 122.518C146.861 122.229 146.95 121.95 147.099 121.701C147.248 121.453 147.453 121.243 147.698 121.089Z" fill="#E0E0E0"/>
<path opacity="0.8" d="M147.698 104.32L204.086 71.7649C204.562 71.487 204.944 71.6855 204.944 72.1936C204.924 72.4827 204.836 72.7629 204.687 73.0113C204.537 73.2597 204.332 73.4693 204.086 73.6229L147.698 106.178C147.222 106.455 146.841 106.257 146.841 105.741C146.861 105.453 146.95 105.174 147.099 104.927C147.248 104.68 147.453 104.472 147.698 104.32Z" fill="#E0E0E0"/>
<path opacity="0.8" d="M147.698 109.902L204.086 77.3469C204.562 77.077 204.944 77.2675 204.944 77.7837C204.923 78.0725 204.835 78.3525 204.686 78.6008C204.537 78.8491 204.331 79.0588 204.086 79.2129L147.698 111.768C147.222 112.038 146.841 111.847 146.841 111.331C146.861 111.042 146.95 110.762 147.099 110.514C147.248 110.265 147.453 110.056 147.698 109.902Z" fill="#E0E0E0"/>
<path opacity="0.8" d="M147.698 115.491L204.086 82.9367C204.562 82.6588 204.944 82.8573 204.944 83.3655C204.924 83.6545 204.836 83.9347 204.687 84.1831C204.537 84.4316 204.332 84.6412 204.086 84.7947L147.698 117.349C147.222 117.627 146.841 117.429 146.841 116.921C146.861 116.632 146.949 116.351 147.098 116.103C147.247 115.855 147.453 115.645 147.698 115.491Z" fill="#E0E0E0"/>
<path opacity="0.8" d="M147.698 121.089L204.086 88.5344C204.562 88.2645 204.944 88.455 204.944 88.9712C204.923 89.26 204.835 89.54 204.686 89.7883C204.537 90.0366 204.331 90.2463 204.086 90.4004L147.698 122.955C147.222 123.225 146.841 123.034 146.841 122.518C146.861 122.229 146.95 121.95 147.099 121.701C147.248 121.453 147.453 121.243 147.698 121.089Z" fill="#E0E0E0"/>
<path d="M147.698 144.814L204.086 112.26C204.562 111.982 204.944 112.18 204.944 112.689C204.924 112.978 204.836 113.258 204.687 113.506C204.537 113.755 204.332 113.964 204.086 114.118L147.698 146.672C147.222 146.95 146.841 146.752 146.841 146.236C146.861 145.948 146.95 145.669 147.099 145.422C147.248 145.175 147.453 144.967 147.698 144.814Z" fill="#E0E0E0"/>
<path d="M147.698 150.396L204.086 117.842C204.562 117.572 204.944 117.762 204.944 118.278C204.923 118.567 204.835 118.847 204.686 119.096C204.537 119.344 204.331 119.554 204.086 119.708L147.698 152.262C147.222 152.532 146.841 152.342 146.841 151.826C146.861 151.537 146.95 151.257 147.099 151.008C147.248 150.76 147.453 150.55 147.698 150.396Z" fill="#E0E0E0"/>
<path d="M147.698 155.986L204.086 123.431C204.562 123.154 204.944 123.352 204.944 123.86C204.924 124.149 204.836 124.429 204.687 124.678C204.537 124.926 204.332 125.136 204.086 125.289L147.698 157.844C147.222 158.122 146.841 157.924 146.841 157.415C146.861 157.126 146.949 156.846 147.098 156.598C147.247 156.349 147.453 156.14 147.698 155.986Z" fill="#E0E0E0"/>
<path d="M147.698 161.584L204.086 129.029C204.562 128.759 204.944 128.95 204.944 129.466C204.923 129.755 204.835 130.035 204.686 130.283C204.537 130.531 204.331 130.741 204.086 130.895L147.698 163.45C147.222 163.72 146.841 163.529 146.841 163.013C146.861 162.724 146.95 162.444 147.099 162.196C147.248 161.948 147.453 161.738 147.698 161.584Z" fill="#E0E0E0"/>
<path opacity="0.8" d="M147.698 144.814L204.086 112.26C204.562 111.982 204.944 112.18 204.944 112.689C204.924 112.978 204.836 113.258 204.687 113.506C204.537 113.755 204.332 113.964 204.086 114.118L147.698 146.672C147.222 146.95 146.841 146.752 146.841 146.236C146.861 145.948 146.95 145.669 147.099 145.422C147.248 145.175 147.453 144.967 147.698 144.814Z" fill="#E0E0E0"/>
<path opacity="0.8" d="M147.698 150.396L204.086 117.842C204.562 117.572 204.944 117.762 204.944 118.278C204.923 118.567 204.835 118.847 204.686 119.096C204.537 119.344 204.331 119.554 204.086 119.708L147.698 152.262C147.222 152.532 146.841 152.342 146.841 151.826C146.861 151.537 146.95 151.257 147.099 151.008C147.248 150.76 147.453 150.55 147.698 150.396Z" fill="#E0E0E0"/>
<path opacity="0.8" d="M147.698 155.986L204.086 123.431C204.562 123.154 204.944 123.352 204.944 123.86C204.924 124.149 204.836 124.429 204.687 124.678C204.537 124.926 204.332 125.136 204.086 125.289L147.698 157.844C147.222 158.122 146.841 157.924 146.841 157.415C146.861 157.126 146.949 156.846 147.098 156.598C147.247 156.349 147.453 156.14 147.698 155.986Z" fill="#E0E0E0"/>
<path opacity="0.8" d="M147.698 161.584L204.086 129.029C204.562 128.759 204.944 128.95 204.944 129.466C204.923 129.755 204.835 130.035 204.686 130.283C204.537 130.531 204.331 130.741 204.086 130.895L147.698 163.45C147.222 163.72 146.841 163.529 146.841 163.013C146.861 162.724 146.95 162.444 147.099 162.196C147.248 161.948 147.453 161.738 147.698 161.584Z" fill="#E0E0E0"/>
<path d="M147.698 186.103L204.086 153.549C204.562 153.271 204.944 153.469 204.944 153.977C204.924 154.266 204.836 154.547 204.687 154.795C204.537 155.043 204.332 155.253 204.086 155.407L147.698 187.961C147.222 188.239 146.841 188.041 146.841 187.525C146.861 187.237 146.95 186.958 147.099 186.711C147.248 186.464 147.453 186.256 147.698 186.103Z" fill="#E0E0E0"/>
<path d="M147.698 191.685L204.086 159.13C204.562 158.86 204.944 159.051 204.944 159.567C204.923 159.856 204.835 160.136 204.686 160.384C204.537 160.633 204.331 160.842 204.086 160.996L147.698 193.551C147.222 193.821 146.841 193.63 146.841 193.114C146.861 192.825 146.95 192.545 147.099 192.297C147.248 192.049 147.453 191.839 147.698 191.685Z" fill="#E0E0E0"/>
<path d="M147.698 197.275L204.086 164.72C204.562 164.442 204.944 164.641 204.944 165.149C204.924 165.438 204.836 165.718 204.687 165.967C204.537 166.215 204.332 166.425 204.086 166.578L147.698 199.133C147.222 199.411 146.841 199.212 146.841 198.704C146.861 198.415 146.949 198.135 147.098 197.887C147.247 197.638 147.453 197.429 147.698 197.275Z" fill="#E0E0E0"/>
<path d="M147.698 202.873L204.086 170.318C204.562 170.048 204.944 170.239 204.944 170.755C204.923 171.044 204.835 171.324 204.686 171.572C204.537 171.82 204.331 172.03 204.086 172.184L147.698 204.739C147.222 205.009 146.841 204.818 146.841 204.302C146.861 204.013 146.95 203.733 147.099 203.485C147.248 203.237 147.453 203.027 147.698 202.873Z" fill="#E0E0E0"/>
<path opacity="0.8" d="M147.698 186.103L204.086 153.549C204.562 153.271 204.944 153.469 204.944 153.977C204.924 154.266 204.836 154.547 204.687 154.795C204.537 155.043 204.332 155.253 204.086 155.407L147.698 187.961C147.222 188.239 146.841 188.041 146.841 187.525C146.861 187.237 146.95 186.958 147.099 186.711C147.248 186.464 147.453 186.256 147.698 186.103Z" fill="#E0E0E0"/>
<path opacity="0.8" d="M147.698 191.685L204.086 159.13C204.562 158.86 204.944 159.051 204.944 159.567C204.923 159.856 204.835 160.136 204.686 160.384C204.537 160.633 204.331 160.842 204.086 160.996L147.698 193.551C147.222 193.821 146.841 193.63 146.841 193.114C146.861 192.825 146.95 192.545 147.099 192.297C147.248 192.049 147.453 191.839 147.698 191.685Z" fill="#E0E0E0"/>
<path opacity="0.8" d="M147.698 197.275L204.086 164.72C204.562 164.442 204.944 164.641 204.944 165.149C204.924 165.438 204.836 165.718 204.687 165.967C204.537 166.215 204.332 166.425 204.086 166.578L147.698 199.133C147.222 199.411 146.841 199.212 146.841 198.704C146.861 198.415 146.949 198.135 147.098 197.887C147.247 197.638 147.453 197.429 147.698 197.275Z" fill="#E0E0E0"/>
<path opacity="0.8" d="M147.698 202.873L204.086 170.318C204.562 170.048 204.944 170.239 204.944 170.755C204.923 171.044 204.835 171.324 204.686 171.572C204.537 171.82 204.331 172.03 204.086 172.184L147.698 204.739C147.222 205.009 146.841 204.818 146.841 204.302C146.861 204.013 146.95 203.733 147.099 203.485C147.248 203.237 147.453 203.027 147.698 202.873Z" fill="#E0E0E0"/>
<path d="M148.215 131.943L151.939 129.807C152.734 129.371 153.313 129.728 153.313 130.601V134.889C153.289 135.367 153.152 135.831 152.913 136.245C152.674 136.659 152.34 137.011 151.939 137.271L148.238 139.407C147.444 139.844 146.865 139.494 146.865 138.613V134.341C146.885 133.863 147.017 133.397 147.252 132.98C147.487 132.564 147.816 132.208 148.215 131.943Z" fill="#004B6B"/>
<path opacity="0.2" d="M148.215 131.943L151.939 129.807C152.734 129.371 153.313 129.728 153.313 130.601V134.889C153.289 135.367 153.152 135.831 152.913 136.245C152.674 136.659 152.34 137.011 151.939 137.271L148.238 139.407C147.444 139.844 146.865 139.494 146.865 138.613V134.341C146.885 133.863 147.017 133.397 147.252 132.98C147.487 132.564 147.816 132.208 148.215 131.943Z" fill="white"/>
<path d="M158.237 128.021L180.602 115.11C181.555 114.562 182.325 114.951 182.325 115.976C182.283 116.554 182.105 117.115 181.806 117.611C181.506 118.108 181.094 118.527 180.602 118.834L158.237 131.713C157.284 132.261 156.514 131.872 156.514 130.848C156.561 130.275 156.741 129.721 157.04 129.23C157.339 128.739 157.749 128.325 158.237 128.021Z" fill="#004B6B"/>
<path opacity="0.8" d="M158.237 128.021L180.602 115.11C181.555 114.562 182.325 114.951 182.325 115.976C182.283 116.554 182.105 117.115 181.806 117.611C181.506 118.108 181.094 118.527 180.602 118.834L158.237 131.713C157.284 132.261 156.514 131.872 156.514 130.848C156.561 130.275 156.741 129.721 157.04 129.23C157.339 128.739 157.749 128.325 158.237 128.021Z" fill="white"/>
<path d="M148.215 172.915L151.939 170.779C152.734 170.334 153.313 170.691 153.313 171.573V175.845C153.288 176.322 153.151 176.786 152.912 177.2C152.673 177.614 152.34 177.966 151.939 178.227L148.238 180.362C147.444 180.799 146.865 180.442 146.865 179.568V175.297C146.886 174.821 147.02 174.358 147.255 173.944C147.489 173.53 147.818 173.178 148.215 172.915Z" fill="#004B6B"/>
<path opacity="0.2" d="M148.215 172.915L151.939 170.779C152.734 170.334 153.313 170.691 153.313 171.573V175.845C153.288 176.322 153.151 176.786 152.912 177.2C152.673 177.614 152.34 177.966 151.939 178.227L148.238 180.362C147.444 180.799 146.865 180.442 146.865 179.568V175.297C146.886 174.821 147.02 174.358 147.255 173.944C147.489 173.53 147.818 173.178 148.215 172.915Z" fill="white"/>
<path d="M158.237 169.032L180.602 156.113C181.555 155.565 182.325 155.954 182.325 156.987C182.283 157.565 182.104 158.125 181.805 158.622C181.505 159.118 181.093 159.537 180.602 159.845L158.237 172.756C157.284 173.304 156.514 172.915 156.514 171.882C156.557 171.305 156.736 170.746 157.035 170.251C157.334 169.756 157.746 169.338 158.237 169.032Z" fill="#004B6B"/>
<path opacity="0.8" d="M158.237 169.032L180.602 156.113C181.555 155.565 182.325 155.954 182.325 156.987C182.283 157.565 182.104 158.125 181.805 158.622C181.505 159.118 181.093 159.537 180.602 159.845L158.237 172.756C157.284 173.304 156.514 172.915 156.514 171.882C156.557 171.305 156.736 170.746 157.035 170.251C157.334 169.756 157.746 169.338 158.237 169.032Z" fill="white"/>
<path d="M153.48 208.979L157.181 206.843C157.975 206.406 158.563 206.764 158.563 207.637V211.909C158.537 212.387 158.398 212.852 158.158 213.266C157.918 213.68 157.583 214.031 157.181 214.291L153.48 216.427C152.726 216.871 152.106 216.514 152.106 215.633V211.361C152.134 210.884 152.273 210.421 152.511 210.007C152.75 209.594 153.081 209.242 153.48 208.979Z" fill="#004B6B"/>
<path d="M147.698 223.493L162.971 214.68C163.447 214.41 163.828 214.6 163.828 215.117C163.808 215.405 163.72 215.685 163.57 215.934C163.421 216.182 163.216 216.392 162.971 216.546L147.698 225.359C147.222 225.629 146.841 225.439 146.841 224.923C146.861 224.634 146.95 224.354 147.099 224.105C147.248 223.857 147.453 223.647 147.698 223.493Z" fill="#E0E0E0"/>
<path d="M174.026 197.116L177.727 194.98C178.481 194.544 179.101 194.901 179.101 195.774V200.046C179.075 200.523 178.937 200.987 178.698 201.401C178.46 201.815 178.127 202.167 177.727 202.428L174.026 204.564C173.232 205.001 172.644 204.651 172.644 203.77V199.498C172.671 199.021 172.81 198.556 173.05 198.142C173.29 197.728 173.624 197.377 174.026 197.116Z" fill="#004B6B"/>
<path d="M168.236 211.631L183.509 202.817C183.985 202.539 184.366 202.738 184.366 203.254C184.346 203.542 184.257 203.821 184.108 204.068C183.959 204.315 183.754 204.523 183.509 204.675L168.236 213.497C167.76 213.775 167.379 213.576 167.379 213.068C167.397 212.778 167.485 212.496 167.634 212.246C167.783 211.996 167.99 211.785 168.236 211.631Z" fill="#E0E0E0"/>
<path d="M194.564 185.254L198.265 183.118C199.019 182.673 199.639 183.03 199.639 183.912V188.184C199.611 188.66 199.473 189.124 199.235 189.538C198.996 189.951 198.664 190.304 198.265 190.566L194.564 192.702C193.769 193.138 193.19 192.781 193.19 191.908V187.636C193.214 187.158 193.352 186.694 193.59 186.28C193.829 185.866 194.163 185.514 194.564 185.254Z" fill="#004B6B"/>
<path opacity="0.2" d="M153.48 208.979L157.181 206.843C157.975 206.406 158.563 206.764 158.563 207.637V211.909C158.537 212.387 158.398 212.852 158.158 213.266C157.918 213.68 157.583 214.031 157.181 214.291L153.48 216.427C152.726 216.871 152.106 216.514 152.106 215.633V211.361C152.134 210.884 152.273 210.421 152.511 210.007C152.75 209.594 153.081 209.242 153.48 208.979Z" fill="white"/>
<path opacity="0.2" d="M174.026 197.116L177.727 194.98C178.481 194.544 179.101 194.901 179.101 195.774V200.046C179.075 200.523 178.937 200.987 178.698 201.401C178.46 201.815 178.127 202.167 177.727 202.428L174.026 204.564C173.232 205.001 172.644 204.651 172.644 203.77V199.498C172.671 199.021 172.81 198.556 173.05 198.142C173.29 197.728 173.624 197.377 174.026 197.116Z" fill="white"/>
<path opacity="0.2" d="M194.564 185.254L198.265 183.118C199.019 182.673 199.639 183.03 199.639 183.912V188.184C199.611 188.66 199.473 189.124 199.235 189.538C198.996 189.951 198.664 190.304 198.265 190.566L194.564 192.702C193.769 193.138 193.19 192.781 193.19 191.908V187.636C193.214 187.158 193.352 186.694 193.59 186.28C193.829 185.866 194.163 185.514 194.564 185.254Z" fill="white"/>
<path d="M188.774 199.768L204.046 190.955C204.523 190.677 204.904 190.875 204.904 191.383C204.884 191.672 204.796 191.953 204.647 192.201C204.498 192.45 204.292 192.659 204.046 192.813L188.774 201.626C188.305 201.904 187.916 201.706 187.916 201.19C187.939 200.902 188.028 200.624 188.177 200.377C188.326 200.131 188.53 199.922 188.774 199.768Z" fill="#E0E0E0"/>
<mask id="mask0_51_308" style="mask-type:luminance" maskUnits="userSpaceOnUse" x="96" y="65" width="34" height="42">
<path d="M113.096 67.2867C104.185 72.3049 96.9656 84.8107 96.9656 95.2123C96.9656 105.614 104.185 109.886 113.096 104.74C122.006 99.5952 129.226 87.0974 129.226 76.807C129.226 66.5165 121.998 62.2606 113.096 67.2867Z" fill="white"/>
</mask>
<g mask="url(#mask0_51_308)">
<path d="M113.096 67.2867C104.185 72.3049 96.9656 84.8107 96.9656 95.2123C96.9656 105.614 104.185 109.886 113.096 104.74C122.006 99.5952 129.226 87.0974 129.226 76.807C129.226 66.5165 121.998 62.2606 113.096 67.2867Z" fill="#FAFAFA"/>
<path d="M120.911 99.3411L107.997 102.803C107.775 102.876 107.538 102.891 107.308 102.849C107.078 102.807 106.862 102.708 106.679 102.562C106.497 102.415 106.355 102.225 106.264 102.009C106.174 101.794 106.139 101.559 106.162 101.326V79.3478C106.208 77.5286 106.816 75.7681 107.902 74.3081C108.989 72.848 110.5 71.7599 112.23 71.1933L116.646 70.0102C120.005 69.1129 122.729 71.3044 122.729 74.9013V96.8876C122.715 97.4338 122.533 97.9623 122.207 98.4013C121.882 98.8403 121.429 99.1684 120.911 99.3411Z" fill="#37474F"/>
<path d="M121.53 105.026L120.172 99.0315C120.172 99.0315 120.172 90.9405 119.02 90.1941C117.869 89.4477 117.535 89.3048 117.535 89.3048C119.012 88.7966 122.126 88.4155 123.094 91.2581C124.024 93.9419 125.414 100.556 126.073 103.811L121.53 105.026Z" fill="#F28F8F"/>
<path d="M121.419 105.058L116.812 89.3763C118.854 88.5822 121.474 87.9232 122.745 90.0274C123.889 91.9171 125.715 101.818 126.073 103.811L121.419 105.058Z" fill="#004B6B"/>
<g opacity="0.4">
<path d="M121.419 105.058L116.812 89.3763C118.854 88.5822 121.474 87.9232 122.745 90.0274C123.889 91.9171 125.715 101.818 126.073 103.811L121.419 105.058Z" fill="black"/>
</g>
<path d="M122.038 104.891L117.511 106.106C117.694 104.806 118.122 103.553 118.774 102.414C119.68 101.109 120.984 100.131 122.491 99.627C122.165 101.362 122.013 103.126 122.038 104.891Z" fill="#004B6B"/>
<path d="M122.038 104.891L117.511 106.106C117.694 104.806 118.122 103.553 118.774 102.414C119.68 101.109 120.984 100.131 122.491 99.627C122.165 101.362 122.013 103.126 122.038 104.891Z" fill="#004B6B"/>
<g opacity="0.7">
<path d="M122.038 104.891L117.511 106.106C117.694 104.806 118.122 103.553 118.774 102.414C119.68 101.109 120.984 100.131 122.491 99.627C122.165 101.362 122.013 103.126 122.038 104.891Z" fill="black"/>
</g>
<path d="M121.069 105.153L108.362 108.544L106.964 104.216C106.964 104.216 110.673 95.5379 106.091 93.3067C106.671 92.87 111.555 90.9643 111.555 90.9643L116.804 89.3763C117.805 89.1063 121.848 90.9008 122.872 94.8788C123.237 96.2842 123.11 97.5467 121.053 104.868C121.077 104.963 121.069 105.058 121.069 105.153Z" fill="#004B6B"/>
<path d="M120.021 72.7098C120.895 73.0274 121.975 75.0919 121.871 80.0704C121.784 84.2945 120.513 85.6285 119.878 86.1367C118.926 86.613 117.877 86.8604 116.812 86.8592V89.3762C116.812 89.3762 118.464 90.9643 118.361 92.1712C118.258 93.3781 115.979 94.2356 114.438 93.521C113.312 92.8867 112.339 92.0141 111.587 90.9643V85.168C111.471 85.3016 111.329 85.4108 111.171 85.4893C111.012 85.5678 110.839 85.6139 110.663 85.625C110.486 85.636 110.309 85.6119 110.142 85.5539C109.974 85.4959 109.82 85.4051 109.689 85.2871C109.441 85.1173 109.229 84.8996 109.067 84.6467C108.904 84.3938 108.794 84.1109 108.743 83.8148C108.692 83.5187 108.701 83.2153 108.769 82.9226C108.838 82.63 108.964 82.354 109.141 82.111C109.935 81.0708 111.325 80.92 111.865 81.9601C112.537 80.3287 113.74 78.9719 115.28 78.1092C117.789 76.5846 119.155 75.2269 120.021 72.7098Z" fill="#FFA8A7"/>
<path d="M117.503 80.1896C117.507 80.3402 117.464 80.4882 117.38 80.6133C117.296 80.7384 117.175 80.8345 117.035 80.8885C116.975 80.9092 116.911 80.915 116.849 80.9055C116.786 80.8959 116.727 80.8713 116.676 80.8338C116.625 80.7963 116.585 80.7469 116.557 80.69C116.53 80.6332 116.516 80.5704 116.519 80.5073C116.515 80.3567 116.558 80.2087 116.642 80.0836C116.726 79.9585 116.847 79.8624 116.987 79.8084C117.047 79.7877 117.111 79.7819 117.173 79.7914C117.236 79.801 117.295 79.8256 117.346 79.8631C117.396 79.9006 117.437 79.95 117.465 80.0069C117.492 80.0637 117.506 80.1265 117.503 80.1896Z" fill="#37474F"/>
<path d="M117.63 83.715L118.774 83.7944C118.741 83.9687 118.65 84.1268 118.516 84.2434C118.382 84.3601 118.213 84.4284 118.035 84.4377C117.718 84.4139 117.535 84.0724 117.63 83.715Z" fill="#F28F8F"/>
<path d="M121.538 77.4901L120.545 77.0215C120.604 76.8679 120.718 76.7416 120.865 76.6668C121.011 76.5921 121.18 76.5741 121.339 76.6164C121.41 76.6602 121.472 76.7177 121.521 76.7855C121.569 76.8534 121.604 76.9302 121.622 77.0116C121.641 77.0929 121.643 77.1771 121.628 77.2593C121.614 77.3414 121.583 77.4199 121.538 77.4901Z" fill="#37474F"/>
<path d="M116.074 79.3481L117.067 78.3395C117.014 78.2859 116.951 78.2441 116.881 78.2168C116.811 78.1895 116.736 78.1773 116.661 78.1811C116.586 78.1848 116.512 78.2044 116.445 78.2386C116.378 78.2727 116.319 78.3206 116.272 78.3792C116.135 78.4944 116.04 78.653 116.004 78.829C115.968 79.0049 115.993 79.1879 116.074 79.3481Z" fill="#37474F"/>
<path d="M121.308 78.7922C121.312 78.943 121.269 79.0915 121.185 79.2168C121.101 79.3422 120.98 79.4381 120.839 79.491C120.779 79.512 120.714 79.5178 120.651 79.5079C120.588 79.4979 120.528 79.4726 120.477 79.4342C120.426 79.3957 120.385 79.3453 120.358 79.2873C120.331 79.2294 120.319 79.1657 120.323 79.1019C120.32 78.9516 120.364 78.8041 120.448 78.6792C120.532 78.5543 120.651 78.458 120.791 78.403C120.852 78.382 120.916 78.3763 120.979 78.3862C121.043 78.3961 121.102 78.4214 121.153 78.4599C121.204 78.4983 121.245 78.5488 121.272 78.6067C121.299 78.6647 121.311 78.7284 121.308 78.7922Z" fill="#37474F"/>
<path d="M118.989 79.1096L119.06 82.2626L120.625 81.3254L118.989 79.1096Z" fill="#F28F8F"/>
<path d="M116.812 86.8594C115.558 87.0182 112.969 86.915 112.564 85.9302C112.71 86.4139 113.033 86.8249 113.469 87.0817C114.263 87.59 116.812 87.7012 116.812 87.7012V86.8594Z" fill="#F28F8F"/>
<path d="M108.434 108.536L107.902 106.646L109.299 108.306L108.434 108.536Z" fill="#004B6B"/>
<path d="M107.393 108.814C106.823 106.097 106.051 103.427 105.082 100.826C103.748 97.1655 105.241 94.0053 106.139 93.3066C107.036 92.6079 111.603 90.9642 111.603 90.9642C113.254 95.6648 113.707 101.961 113.747 107.115L107.393 108.814Z" fill="#004B6B"/>
<path opacity="0.4" d="M107.393 108.814C106.823 106.097 106.051 103.427 105.082 100.826C103.748 97.1655 105.241 94.0053 106.139 93.3066C107.036 92.6079 111.603 90.9642 111.603 90.9642C113.254 95.6648 113.707 101.961 113.747 107.115L107.393 108.814Z" fill="black"/>
<path d="M105.138 109.417L100.603 110.632C100.476 110.547 100.357 110.451 100.246 110.346C100.246 110.346 102.39 102.073 103.073 99.3254C103.756 96.5781 104.28 94.6884 106.123 93.3068C109.434 95.4585 107.902 101.437 107.902 101.437L105.138 109.417Z" fill="#004B6B"/>
<path opacity="0.4" d="M105.138 109.417L100.603 110.632C100.476 110.547 100.357 110.451 100.246 110.346C100.246 110.346 102.39 102.073 103.073 99.3254C103.756 96.5781 104.28 94.6884 106.123 93.3068C109.434 95.4585 107.902 101.437 107.902 101.437L105.138 109.417Z" fill="black"/>
</g>
<path d="M39.1089 56.5436V40.8142C39.0613 37.7651 41.0468 34.7082 45.0733 32.3897C53.0152 27.7923 65.9287 27.7923 73.8865 32.3897C77.913 34.7082 79.8985 37.7651 79.8509 40.8142V56.488C79.8509 59.5212 77.8972 64.9443 73.8865 67.2549C65.9446 71.8523 53.0311 71.8523 45.0733 67.2549C41.1023 64.9681 39.1169 59.5847 39.1089 56.5754V56.5436Z" fill="#EBEBEB"/>
<path d="M59.4798 21.2972L93.0979 40.703L59.4798 60.1087L25.8618 40.703L59.4798 21.2972Z" fill="#F5F5F5"/>
<path d="M42.6589 50.398L59.2178 40.9492C59.2861 40.9101 59.3615 40.8848 59.4395 40.8748C59.5176 40.8649 59.5969 40.8703 59.6729 40.891C59.7488 40.9116 59.82 40.947 59.8822 40.9952C59.9445 41.0433 59.9967 41.1032 60.0358 41.1715C60.0749 41.2398 60.1002 41.3152 60.1102 41.3932C60.1202 41.4713 60.1147 41.5505 60.094 41.6265C60.0734 41.7024 60.038 41.7736 59.9898 41.8358C59.9417 41.8981 59.8817 41.9503 59.8134 41.9894L43.8423 51.0808L42.6589 50.398Z" fill="#E0E0E0"/>
<path d="M93.0979 40.703V42.0925L59.4799 61.4903V60.1088L93.0979 40.703Z" fill="#E6E6E6"/>
<path d="M25.8618 40.703V42.0925L59.4798 61.4903V60.1088L25.8618 40.703Z" fill="#F0F0F0"/>
<path d="M41.825 51.3033L42.8495 51.891C43.0044 51.6381 43.2201 51.4278 43.4769 51.2795L43.8343 51.073L42.6669 50.4059C42.322 50.6375 42.0342 50.9444 41.825 51.3033Z" fill="#E0E0E0"/>
<path d="M79.8905 49.715L59.4798 63.5705L39.1248 49.7467L59.4798 61.4902L79.8905 49.715Z" fill="#E0E0E0"/>
<path d="M40.5146 67.644C40.7994 67.791 41.1153 67.8676 41.4358 67.8676C41.7564 67.8676 42.0722 67.791 42.3571 67.644L43.874 77.4343C43.874 79.2843 39.0692 79.2843 39.0692 77.4343L40.5146 67.644Z" fill="#F5F5F5"/>
<path d="M40.4273 73.2339L40.1255 78.6014C40.0264 78.5714 39.9307 78.5315 39.8396 78.4823L40.4273 73.2339Z" fill="#EBEBEB"/>
<path d="M42.6986 78.641L42.0632 69.9069L43.0083 78.514C42.9077 78.5625 42.8043 78.6049 42.6986 78.641Z" fill="#EBEBEB"/>
<path d="M41.6186 78.8158H41.3168L41.4756 71.884L41.6186 78.8158Z" fill="#EBEBEB"/>
<path d="M41.4279 68.4621C41.78 68.4534 42.1209 68.337 42.4048 68.1286C42.5255 68.0395 42.6075 67.9076 42.6341 67.7599C42.6607 67.6122 42.6298 67.46 42.5477 67.3344C42.4611 67.2108 42.3296 67.1259 42.1813 67.0977C42.033 67.0695 41.8795 67.1003 41.7535 67.1835C41.678 67.2567 41.5769 67.2977 41.4716 67.2977C41.3663 67.2977 41.2652 67.2567 41.1897 67.1835C41.1279 67.1285 41.0554 67.087 40.9767 67.0616C40.898 67.0361 40.8148 67.0274 40.7326 67.0358C40.6503 67.0443 40.5707 67.0698 40.4988 67.1107C40.427 67.1517 40.3644 67.2071 40.3152 67.2735C40.2659 67.3399 40.231 67.4159 40.2127 67.4966C40.1944 67.5772 40.1931 67.6608 40.2089 67.742C40.2246 67.8231 40.2571 67.9001 40.3043 67.9681C40.3515 68.036 40.4123 68.0934 40.4828 68.1365C40.7562 68.341 41.0866 68.4548 41.4279 68.4621Z" fill="#E0E0E0"/>
<path d="M41.4676 66.9373C41.5455 66.9383 41.6227 66.9239 41.6949 66.8949C41.7672 66.8658 41.8329 66.8227 41.8883 66.768C41.9437 66.7134 41.9877 66.6482 42.0178 66.5764C42.0478 66.5046 42.0633 66.4275 42.0633 66.3497V52.4703C42.064 52.1583 42.1466 51.8518 42.3026 51.5816C42.4587 51.3113 42.6828 51.0866 42.9527 50.9299L59.8134 41.3223C59.9473 41.2457 60.0457 41.1194 60.0873 40.9709C60.1289 40.8223 60.1104 40.6634 60.0358 40.5283C59.9986 40.4612 59.9484 40.4022 59.8882 40.3547C59.828 40.3071 59.759 40.272 59.6851 40.2513C59.6112 40.2306 59.534 40.2248 59.4579 40.2342C59.3817 40.2436 59.3082 40.268 59.2416 40.306L42.3412 49.9295C41.8907 50.1895 41.5164 50.5633 41.2558 51.0133C40.9952 51.4634 40.8573 51.9741 40.8561 52.4941V66.3735C40.8591 66.4507 40.8774 66.5265 40.9098 66.5967C40.9422 66.6668 40.9881 66.7298 41.0449 66.7822C41.1017 66.8345 41.1683 66.8752 41.2408 66.9018C41.3133 66.9284 41.3904 66.9405 41.4676 66.9373Z" fill="#FAFAFA"/>
<path d="M42.7701 66.35C42.7717 66.092 42.6966 65.8394 42.5544 65.6242C42.4123 65.409 42.2094 65.2408 41.9716 65.141C41.7337 65.0412 41.4716 65.0143 41.2184 65.0636C40.9652 65.113 40.7324 65.2364 40.5495 65.4182C40.3665 65.6001 40.2417 65.8321 40.1908 66.085C40.1399 66.3379 40.1652 66.6001 40.2635 66.8386C40.3619 67.0771 40.5288 67.2809 40.7432 67.4244C40.9575 67.5679 41.2097 67.6445 41.4676 67.6445C41.6383 67.6455 41.8075 67.6128 41.9654 67.5482C42.1234 67.4837 42.2671 67.3885 42.3881 67.2682C42.5092 67.1478 42.6052 67.0048 42.6708 66.8472C42.7363 66.6896 42.7701 66.5206 42.7701 66.35Z" fill="#F5F5F5"/>
<path d="M40.181 66.4215C40.2352 66.5559 40.3178 66.677 40.4231 66.7766C40.5283 66.8762 40.6538 66.9519 40.791 66.9986C40.9282 67.0453 41.0738 67.062 41.2179 67.0474C41.3621 67.0327 41.5014 66.9872 41.6264 66.9139C41.7859 66.8179 41.9179 66.6822 42.0095 66.5201C42.1011 66.358 42.1492 66.1749 42.1492 65.9887C42.1492 65.8025 42.1011 65.6195 42.0095 65.4573C41.9179 65.2952 41.7859 65.1596 41.6264 65.0635C41.8694 65.097 42.0978 65.1989 42.2851 65.3572C42.4724 65.5155 42.6109 65.7238 42.6845 65.9578C42.758 66.1917 42.7635 66.4418 42.7005 66.6788C42.6374 66.9158 42.5083 67.13 42.3282 67.2965C42.1481 67.463 41.9244 67.5749 41.6831 67.6191C41.4419 67.6634 41.1931 67.6382 40.9656 67.5465C40.7381 67.4549 40.5413 67.3004 40.3982 67.1013C40.2551 66.9021 40.1715 66.6664 40.1572 66.4215H40.181Z" fill="#EBEBEB"/>
<path d="M271.552 58.6884L265.413 55.1542L268.789 54.4395L272.148 56.7823L271.552 58.6884Z" fill="#E0E0E0"/>
<path d="M260.807 27.0618C260.807 17.5336 254.97 13.1109 247.798 17.2478L237.204 23.3617C230.056 27.4985 224.203 38.6465 224.203 48.2064C224.203 48.5955 224.203 49.0005 224.203 49.3419C224.203 49.5563 224.203 49.7389 224.203 49.9453C224.203 50.1518 224.242 50.3185 224.258 50.5012C224.274 50.6838 224.306 50.922 224.338 51.1284C224.498 52.2568 224.78 53.3643 225.18 54.4315C225.346 54.8285 225.521 55.2255 225.712 55.559C225.8 55.7432 225.901 55.921 226.014 56.091L226.117 56.2578C226.294 56.5422 226.498 56.8082 226.728 57.0518C226.855 57.1947 226.974 57.3456 227.109 57.4806L227.522 57.8776C227.665 57.9887 227.8 58.1237 227.951 58.2349C228.094 58.3497 228.245 58.4533 228.404 58.5445L228.873 58.8145C229.479 59.142 230.137 59.3648 230.818 59.4735C230.871 59.4608 230.925 59.4608 230.977 59.4735C231.16 59.4735 231.327 59.5132 231.509 59.5132C231.702 59.5291 231.896 59.5291 232.089 59.5132C232.6 59.5188 233.109 59.4628 233.606 59.3465C233.903 59.2874 234.198 59.2132 234.488 59.1242C235.416 58.8399 236.306 58.4454 237.14 57.949L247.735 51.8351C248.461 51.4136 249.156 50.9413 249.815 50.4218C249.815 50.2947 249.815 50.1835 249.815 50.0644C249.815 49.9453 249.815 49.6913 249.815 49.5483C249.815 49.2307 249.815 48.9052 249.815 48.5796C249.792 40.4569 254.684 30.8731 260.807 27.0618Z" fill="#E0E0E0"/>
<path d="M262.594 20.1938L256.439 16.6525C256.479 16.6525 257.066 20.9322 257.066 20.9322L261.633 21.4721L262.594 20.1938Z" fill="#E0E0E0"/>
<path d="M234.154 61.8079L228.468 58.5842L231.891 57.1152L234.154 61.8079Z" fill="#E0E0E0"/>
<path d="M237.204 58.0443C237.163 60.3973 236.407 62.6822 235.035 64.5949C234.781 64.9284 235.17 65.2222 235.456 65.0713C236.754 64.3979 237.905 63.4719 238.84 62.3478C240.636 60.2254 241.892 57.7001 242.501 54.9873L237.204 58.0443Z" fill="#E0E0E0"/>
<path d="M235.099 65.0555L241.254 68.5969C241.254 68.5969 244.709 65.6828 244.709 59.7833L238.03 59.3307C238.03 59.3307 237.871 63.1737 235.099 65.0555Z" fill="#E0E0E0"/>
<path d="M251.491 47.6983C251.491 47.9947 251.491 48.2805 251.491 48.5558C251.491 48.7146 251.491 48.8496 251.491 49.0004C251.491 49.1513 251.491 49.2783 251.539 49.4213C251.586 49.5642 251.539 49.7389 251.594 49.8977C251.686 50.601 251.851 51.2929 252.087 51.9621C252.121 52.084 252.163 52.2034 252.214 52.3194C252.272 52.4789 252.338 52.6353 252.412 52.7879C252.474 52.9354 252.546 53.0787 252.627 53.2167C252.69 53.355 252.764 53.4878 252.849 53.6137L252.929 53.7407C253.069 53.9595 253.222 54.169 253.389 54.368C253.476 54.4837 253.572 54.5926 253.675 54.6935L253.977 54.9873C254.08 55.0839 254.189 55.174 254.303 55.2573C254.411 55.3414 254.525 55.4183 254.644 55.4876C254.763 55.559 254.874 55.6305 255.001 55.694L255.367 55.8687L255.748 56.0037C255.98 56.074 256.216 56.1323 256.455 56.1784H256.574C256.706 56.1904 256.839 56.1904 256.971 56.1784C257.114 56.1945 257.257 56.1945 257.4 56.1784C257.741 56.1782 258.082 56.1436 258.416 56.0751C258.685 56.0297 258.95 55.9687 259.211 55.8925C259.908 55.6789 260.577 55.383 261.204 55.0111L269.146 50.4217C269.854 50.013 270.522 49.537 271.139 49.0004C271.362 48.8099 271.584 48.6034 271.807 48.397C272.207 48.0241 272.586 47.6291 272.942 47.2139L273.45 46.7534C273.586 46.5946 273.713 46.4278 273.848 46.2611C273.88 46.2034 273.921 46.15 273.967 46.1023C274.496 45.4032 274.983 44.6742 275.428 43.9187C275.547 43.7202 275.658 43.5138 275.777 43.3074C275.897 43.1009 276.008 42.8945 276.119 42.6801C276.23 42.4657 276.333 42.2513 276.445 42.0449L276.746 41.3938C276.85 41.1794 276.945 40.9491 277.04 40.7427C277.207 40.3615 277.358 39.9487 277.493 39.5834C277.493 39.512 277.549 39.4405 277.572 39.369C277.66 39.1467 277.731 38.9244 277.803 38.7021C277.946 38.2733 278.073 37.8445 278.2 37.3999C278.479 36.3563 278.689 35.2952 278.827 34.2238C278.827 34.0412 278.867 33.8665 278.891 33.6839C278.915 33.5012 278.891 33.3742 278.93 33.2154C278.97 33.0566 278.93 32.8978 278.93 32.739C278.93 32.4426 278.93 32.1488 278.93 31.8576C278.93 24.7115 274.554 21.3687 269.17 24.4733L261.228 29.0706C255.867 32.1594 251.491 40.5204 251.491 47.6983Z" fill="#E0E0E0"/>
<path d="M281.797 27.5224L275.69 24.0128L273.387 25.6406L280.511 29.9521L281.797 27.5224Z" fill="#E0E0E0"/>
<path d="M260.831 59.0211L254.692 55.4877L259.505 54.0505L260.831 59.0211Z" fill="#E0E0E0"/>
<path d="M267.994 51.192C267.994 52.4624 269.583 54.1934 271.401 54.5189C271.648 54.5666 271.584 55.1065 271.29 55.313C270.206 55.9016 268.956 56.1085 267.74 55.9005C266.951 55.877 266.182 55.644 265.512 55.2254C264.842 54.8069 264.295 54.2178 263.928 53.5185L267.994 51.192Z" fill="#004B6B"/>
<path d="M253.945 20.7812L243.343 26.9031C236.195 31.0399 230.35 42.1879 230.35 51.7399C230.35 52.1369 230.35 52.5339 230.35 52.8833C230.35 53.0976 230.35 53.2803 230.35 53.4867C230.35 53.6932 230.39 53.852 230.413 54.0346C230.437 54.2172 230.461 54.4713 230.493 54.6698C230.636 55.7939 230.903 56.8989 231.287 57.965C231.454 58.3699 231.628 58.759 231.819 59.1004C231.907 59.2822 232.008 59.4574 232.121 59.6245C232.154 59.6824 232.191 59.7381 232.232 59.7912C232.405 60.0912 232.607 60.3732 232.836 60.6329C232.963 60.7758 233.09 60.9346 233.225 61.0616L233.63 61.4586C233.773 61.5698 233.916 61.7048 234.059 61.8159C234.203 61.929 234.354 62.0325 234.511 62.1256L234.988 62.3956C235.593 62.7218 236.248 62.9446 236.926 63.0546C236.977 63.0371 237.033 63.0371 237.085 63.0546C237.267 63.0546 237.442 63.0546 237.617 63.0546C237.81 63.0664 238.003 63.0664 238.196 63.0546C238.707 63.0568 239.216 63.0009 239.713 62.8879C240.011 62.8287 240.305 62.7545 240.595 62.6655C241.521 62.3789 242.411 61.9873 243.247 61.4983C243.208 63.8504 242.449 66.1338 241.071 68.041C240.817 68.3825 241.206 68.6762 241.5 68.5254C242.8 67.8512 243.951 66.9223 244.884 65.794C246.675 63.6714 247.931 61.1499 248.545 58.4414L247.751 58.8781L253.81 55.3844C254.397 55.0466 254.962 54.6726 255.502 54.2648C255.455 54.0633 255.421 53.8591 255.399 53.6535C255.399 53.5185 255.351 53.32 255.335 53.1135C255.306 52.9374 255.288 52.7598 255.279 52.5815V52.4863C255.272 52.354 255.272 52.2215 255.279 52.0892C255.279 51.7875 255.279 51.4699 255.279 51.1523C255.279 43.1169 260.045 34.0571 266.176 30.5079L266.851 30.1109C266.787 20.9241 261.014 16.6999 253.945 20.7812Z" fill="#F0F0F0"/>
<path d="M275.349 27.9908L267.407 32.5802C262.03 35.6927 257.646 44.0537 257.646 51.2316C257.646 51.5254 257.646 51.8113 257.646 52.0892C257.646 52.3671 257.646 52.3829 257.646 52.5338C257.646 52.6847 257.646 52.8117 257.686 52.9546C257.699 53.1118 257.72 53.2682 257.749 53.4231C257.837 54.1299 258.002 54.8249 258.242 55.4955C258.272 55.6185 258.315 55.7382 258.369 55.8528C258.423 56.0101 258.486 56.164 258.559 56.3133C258.623 56.4627 258.695 56.6085 258.774 56.75C258.839 56.8886 258.916 57.0214 259.004 57.147C259.023 57.1921 259.047 57.2348 259.076 57.2741C259.227 57.4964 259.377 57.7029 259.536 57.9014C259.628 58.0153 259.726 58.124 259.83 58.2269L260.132 58.5207C260.235 58.6172 260.344 58.7074 260.458 58.7907C260.562 58.8764 260.674 58.9534 260.791 59.0209C260.91 59.0924 261.021 59.1638 261.148 59.2274L261.514 59.402L261.895 59.537C262.127 59.6074 262.363 59.6657 262.602 59.7117H262.721C262.853 59.7238 262.986 59.7238 263.118 59.7117C263.263 59.7318 263.41 59.7318 263.555 59.7117C263.896 59.7137 264.237 59.6817 264.571 59.6164C264.839 59.5703 265.105 59.5094 265.366 59.4338C266.064 59.2232 266.733 58.9272 267.359 58.5525L270.043 57.0121C270.416 57.7039 270.965 58.285 271.634 58.6964C272.304 59.1077 273.07 59.3348 273.856 59.3544C275.072 59.5593 276.322 59.3496 277.406 58.7589C277.691 58.5763 277.763 58.0363 277.509 57.9649C275.69 57.6393 274.11 55.9084 274.11 54.638L275.317 53.9392C276.024 53.5285 276.691 53.0527 277.31 52.5179C277.533 52.3274 277.755 52.1209 277.969 51.9145C278.372 51.5417 278.754 51.1467 279.113 50.7314C279.256 50.5646 279.399 50.4058 279.542 50.2153C279.685 50.0247 279.804 49.8977 279.939 49.7309L280.058 49.5721C280.587 48.8731 281.075 48.144 281.519 47.3886L281.877 46.7772C281.996 46.5707 282.107 46.3643 282.218 46.1499C282.33 45.9355 282.425 45.7211 282.536 45.5147L282.846 44.8636C282.949 44.6413 283.036 44.419 283.132 44.2125C283.298 43.8314 283.457 43.4185 283.592 43.0533L283.664 42.8389C283.751 42.6165 283.831 42.3942 283.894 42.1719C284.045 41.7352 284.164 41.3144 284.299 40.8697C284.579 39.8261 284.788 38.7651 284.927 37.6936C284.927 37.511 284.966 37.3363 284.982 37.1537C284.998 36.9711 284.982 36.8361 285.022 36.6852C285.062 36.5344 285.022 36.3676 285.022 36.2088C285.022 35.9151 285.022 35.6133 285.022 35.3195C285.109 28.1972 280.725 24.8862 275.349 27.9908Z" fill="#F0F0F0"/>
<path d="M211.543 133.023C208.541 132.086 205.46 134.516 203.443 139.423C201.425 144.33 197.192 156.812 196.565 160.139C195.938 163.466 210.138 170.707 209.741 170.517C209.343 170.326 211.543 133.023 211.543 133.023Z" fill="#263238"/>
<path d="M204.944 248.521C204.515 248.68 204.412 249.49 204.348 251.094C204.3 252.308 204.038 254.428 205.46 254.849C206.882 255.27 208.97 255.056 209.884 253.912C211.019 252.483 211.79 251.228 213.41 249.482C214.823 247.973 216.34 246.56 216.912 244.44C217.428 242.518 217 241.692 215.689 241.137C213.894 240.343 211.067 242.867 209.661 243.265C208.446 243.606 205.365 248.362 204.944 248.521Z" fill="#263238"/>
<path d="M204.944 247.036V249.006C205.683 249.479 206.537 249.741 207.415 249.765C208.292 249.789 209.159 249.573 209.923 249.141C210.011 248.95 210.439 246.322 210.439 246.322L204.944 247.036Z" fill="#FFA8A7"/>
<path d="M220.899 259.875C220.899 259.875 220.335 261.59 220.033 263.051C219.787 264.242 219.446 266.227 219.859 267.133C220.272 268.038 221.908 268.609 224.425 268.586C226.061 268.586 228.611 269.689 230.35 270.658C232.089 271.627 235.909 272.063 237.807 271.841C240.047 271.579 242.374 270.253 242.739 269.348C243.105 268.443 242.62 267.45 237.331 265.195C237.283 265.195 229.977 262.813 227.411 259.978L220.899 259.875Z" fill="#263238"/>
<path d="M220.899 257.747C220.899 257.747 220.899 259.209 220.899 260.043C220.899 260.876 221.884 262.123 224.441 262.036C226.236 261.972 227.483 261.488 227.411 260.011V257.874L220.899 257.747Z" fill="#FFA8A7"/>
<path d="M203.657 220.889C204.096 217.399 204.876 213.96 205.984 210.622C205.984 210.622 205.285 201.769 204.944 193.376C204.578 184.309 204.944 172.907 204.793 170.652C204.793 170.652 234.059 164.728 234.583 175.209C235.107 185.69 233.423 212.369 233.082 216.974C232.74 221.58 231.938 225.653 230.985 233.117C230.032 240.581 227.411 257.874 227.411 257.874C226.399 258.39 225.275 258.648 224.139 258.626C223.003 258.604 221.89 258.302 220.899 257.747C220.899 257.747 218.842 236.785 219.056 231.473C219.224 227.528 219.902 223.62 221.074 219.849L220.033 203.691C219.541 196.171 219.025 192.574 218.906 189.295L218.278 188.977C218.278 188.977 217.635 201.952 217.293 206.557C216.952 211.162 216.213 215.577 214.911 224.129C213.751 231.545 210.312 247.242 210.312 247.242C206.969 249.053 204.975 247.012 204.975 247.012C204.975 247.012 202.768 227.32 203.657 220.889Z" fill="#455A64"/>
<path d="M218.906 189.319C218.906 189.319 211.805 185.817 208.255 182.665C208.255 182.665 211.551 187.31 215.888 189.375C215.888 189.375 217.428 205.485 217.42 205.168L218.31 189.287L218.906 189.319Z" fill="#37474F"/>
<path d="M225.227 129.704L223.496 139.232L214.887 138.605L216.69 127.799L225.227 129.704Z" fill="#FFA8A7"/>
<path d="M205.793 137.906C206.643 135.318 209.931 132.499 213.219 133.142C218.109 133.969 222.928 135.172 227.634 136.739C230.644 137.811 233.384 140.416 233.638 150.325L235.163 179.831L231.517 180.625L230.247 173.939L229.659 180.625C225.847 181.577 219.231 180.791 214.887 179.831C205.833 177.853 204.745 174.098 204.745 174.098C204.745 174.098 204.626 157.495 204.896 150.325C205.15 144.195 205.206 139.653 205.793 137.906Z" fill="#37474F"/>
<path d="M231.597 118.413C231.597 118.413 233.685 121.503 233.415 121.828C232.933 122.154 232.394 122.388 231.827 122.519L231.597 118.413Z" fill="#FFA8A7"/>
<path d="M225.227 108.631C227.237 109.647 230.707 111.521 231.66 118.866C232.645 126.409 231.351 128.839 230.334 129.839C229.643 130.514 225.894 130.554 224.02 129.99C221.638 129.283 216.38 127.275 213.966 123.4C211.123 118.842 210.487 112.736 213.696 110.306C218.199 106.892 223.528 107.774 225.227 108.631Z" fill="#FFA8A7"/>
<path d="M232.081 111.156C231.422 112.966 230.31 117.397 225.688 119.247C225.688 119.247 225.029 116.42 222.654 116.722C220.279 117.024 219.874 120.049 221.336 121.931C222.797 123.813 224.211 123.13 224.211 123.13C224.211 123.13 224.528 127.179 221.828 129.013C221.828 129.013 218.564 131.078 215.109 129.49C213.521 128.775 211.353 125.051 210.066 121.994C207.334 115.531 206.945 110.346 211.067 108.711C211.575 105.773 212.901 104.669 215.562 104.121C221.288 102.938 225.616 106.702 230.429 106.043C232.947 105.693 232.836 109.092 232.081 111.156Z" fill="#37474F"/>
<path d="M210.972 109.696L208.271 108.028C208.376 107.841 208.517 107.677 208.687 107.546C208.857 107.415 209.051 107.32 209.259 107.266C209.466 107.212 209.683 107.201 209.895 107.233C210.107 107.265 210.31 107.339 210.492 107.452C210.675 107.564 210.832 107.713 210.956 107.888C211.079 108.063 211.166 108.262 211.211 108.471C211.256 108.681 211.258 108.898 211.216 109.108C211.175 109.318 211.092 109.518 210.972 109.696Z" fill="#37474F"/>
<path d="M224.592 133.174L225.577 136.025C225.577 136.025 224.854 137.295 221.781 137.359C218.707 137.422 215.427 136.445 214.41 135.135C214.179 134.879 214.008 134.574 213.909 134.243C213.81 133.912 213.786 133.563 213.839 133.222C213.839 133.222 215.062 130.522 216.221 130.641L216.031 131.816C216.031 131.816 216.293 132.777 219.08 133.516C223.417 134.667 224.592 133.174 224.592 133.174Z" fill="#455A64"/>
<path d="M249.291 152.119C250.53 150.698 251.007 147.546 252.659 145.386C254.311 143.226 254.922 141.646 255.573 142.591C256.439 143.838 254.485 146.339 254.922 146.561C255.359 146.784 256.971 150.103 257.138 151.929C257.305 153.755 252.46 158.36 252.46 158.36L249.291 152.119Z" fill="#FFA8A7"/>
<path d="M224.592 133.174C224.792 133.17 224.989 133.221 225.162 133.32C225.336 133.419 225.479 133.564 225.577 133.738C226.062 134.615 226.497 135.519 226.879 136.446L225.577 136.025L224.592 133.174Z" fill="#455A64"/>
<path d="M254.787 146.307C254.787 146.307 260.64 145.799 261.49 146.307C262.34 146.815 262.086 149.348 261.49 150.905C260.894 152.461 257.908 153.469 255.137 155.343C255.137 155.057 254.787 146.307 254.787 146.307Z" fill="#FFA8A7"/>
<path d="M226.879 136.477C229.397 137.359 231.597 138.367 233.948 142.782C236.965 148.451 242.684 157.519 242.684 157.519L249.267 151.714C249.267 151.714 250.26 150.754 252.111 153.811C252.653 154.634 252.996 155.571 253.113 156.55C253.23 157.528 253.118 158.521 252.786 159.448C252.786 159.448 245.185 168.365 243.732 169.723C242.279 171.081 239.872 170.024 238.308 167.889C236.743 165.753 226.855 153.406 226.855 153.406C226.855 153.406 221.487 146.275 226.879 136.477Z" fill="#37474F"/>
<path d="M294.79 121.653H276.04C275.332 121.653 274.653 121.372 274.153 120.872C273.652 120.371 273.371 119.693 273.371 118.985V89.2015C273.371 86.8577 274.302 84.6099 275.96 82.9525C277.618 81.2952 279.866 80.3641 282.21 80.3641H288.643C290.984 80.3704 293.226 81.3043 294.878 82.9609C296.531 84.6176 297.459 86.8618 297.459 89.2015V118.985C297.459 119.693 297.178 120.371 296.677 120.872C296.177 121.372 295.498 121.653 294.79 121.653Z" fill="#37474F"/>
<path d="M272.879 111.49C271.06 116.849 268.01 132.269 268.01 132.269C268.01 132.269 261.657 140.034 259.584 141.916C258.448 142.964 255.891 144.846 255.891 144.846L260.537 148.26C264.732 145.035 268.672 141.491 272.323 137.66C273.135 136.796 273.705 135.734 273.975 134.579L277.151 120.954C277.151 120.954 277.151 109.997 278.827 108.56C280.503 107.122 280.987 106.821 280.987 106.821C278.835 106.662 274.308 107.273 272.879 111.49Z" fill="#F28F8F"/>
<path d="M281.98 106.662C279.018 106.32 275.222 106.384 273.371 109.695C271.521 113.006 268.439 130.125 268.439 130.125C268.439 130.125 271.354 132.388 274.499 132.348L281.98 106.662Z" fill="#004B6B"/>
<path d="M273.744 122.614C274.278 125.166 274.483 127.775 274.356 130.379C274.126 133.809 271.759 139.796 271.759 139.796C271.759 139.796 273.609 141.829 278.827 141.011C283.076 140.352 281.575 127.513 279.137 125.051C277.715 123.583 275.787 122.711 273.744 122.614Z" fill="#004B6B"/>
<path opacity="0.3" d="M273.744 122.614C274.278 125.166 274.483 127.775 274.356 130.379C274.126 133.809 271.759 139.796 271.759 139.796C271.759 139.796 273.609 141.829 278.827 141.011C283.076 140.352 281.575 127.513 279.137 125.051C277.715 123.583 275.787 122.711 273.744 122.614Z" fill="black"/>
<path d="M283.561 213.29C283.594 213.876 283.447 214.458 283.14 214.958C282.354 216.255 281.43 217.464 280.384 218.563C278.915 220.151 276.715 222.017 275.134 223.39C274.261 224.184 274.229 225.312 275.484 225.717C277.823 226.286 280.291 225.943 282.385 224.756C283.974 223.914 286.181 219.992 287.484 219.436C288.985 218.761 289.819 218.428 290.327 217.737C290.711 217.344 290.951 216.833 291.008 216.286C291.064 215.74 290.933 215.19 290.637 214.728C289.93 213.409 288.866 211.385 288.429 211.615L288.564 212.028C288.222 213.1 285.3 214.346 283.799 214.053L283.561 213.29Z" fill="#37474F"/>
<path d="M298.865 168.492C299.54 161.346 301.477 149.848 299.492 141.337L273.125 142.734C272.394 151.127 271.536 177.329 272.458 180.331C273.522 183.872 283.028 208.383 283.576 213.314C283.614 213.893 283.467 214.468 283.155 214.958C282.371 216.258 281.447 217.47 280.4 218.571C279.685 219.365 278.811 220.159 277.89 220.953C277.813 221.066 277.766 221.197 277.755 221.334C277.755 222.128 279.756 222.374 280.932 222.032C282.398 221.515 283.661 220.545 284.537 219.261C285.212 218.364 286.729 216.641 287.714 215.347C288.043 214.947 288.323 214.51 288.548 214.045C288.811 213.463 288.856 212.806 288.675 212.195L288.612 211.996C288.096 210.389 287.776 208.725 287.659 207.041C287.293 201.634 286.364 189.144 285.506 185.817C284.911 183.393 284.006 181.055 282.814 178.862L285.824 155.446C285.824 155.446 286.142 176.091 287.079 181.355C287.817 185.571 288.103 190.843 288.969 198.077C289.763 205.001 290.684 217.197 290.684 217.197C290.708 217.201 290.732 217.201 290.756 217.197V223.025H295.688V219.642C295.688 218.115 295.815 216.591 296.069 215.085C296.863 210.479 298.515 199.943 298.857 196.378C299.397 190.724 297.356 183.618 297.356 183.618C297.356 183.618 298.205 175.463 298.865 168.492Z" fill="#FFA8A7"/>
<path d="M289.573 106.908C289.573 106.908 296.665 107.702 297.514 108.107C290.859 112.784 296.252 123.193 296.252 123.193L293.702 131.189C296.538 134.818 298.984 136.977 300.501 140.955C302.184 145.402 303.677 152.016 303.28 165.57C296.927 170.334 277.596 169.818 270.067 165.57C270.067 165.57 271.338 153.604 272.839 144.306C273.832 138.168 276.175 131.483 275.777 129.22C272.791 120.041 272.601 118.389 273.141 116.341C274.626 110.576 280.503 106.678 281.948 106.678L289.573 106.908Z" fill="#004B6B"/>
<path opacity="0.6" d="M289.573 106.908C289.573 106.908 296.665 107.702 297.514 108.107C290.859 112.784 296.252 123.193 296.252 123.193L293.702 131.189C296.538 134.818 298.984 136.977 300.501 140.955C302.184 145.402 303.677 152.016 303.28 165.57C296.927 170.334 277.596 169.818 270.067 165.57C270.067 165.57 271.338 153.604 272.839 144.306C273.832 138.168 276.175 131.483 275.777 129.22C272.791 120.041 272.601 118.389 273.141 116.341C274.626 110.576 280.503 106.678 281.948 106.678L289.573 106.908Z" fill="white"/>
<path d="M290.708 220.556V219.849C290.089 222.223 288.85 224.391 287.119 226.13C285.53 227.567 283.386 229.234 282.83 230.846C282.274 232.458 285.379 233.18 287.428 232.974C289.414 232.731 291.243 231.775 292.575 230.282C293.877 228.79 293.853 227.773 294.457 226.947C295.06 226.122 296.466 225.216 296.792 224.264C296.893 223.375 296.796 222.474 296.506 221.627C296.276 220.746 296.021 219.769 295.712 219.849V220.397C294.997 220.959 294.111 221.259 293.202 221.246C292.511 221.262 290.7 221.111 290.708 220.556Z" fill="#37474F"/>
<path d="M295.688 220.381C294.973 220.943 294.087 221.243 293.178 221.23C292.447 221.23 290.669 221.111 290.676 220.556V219.849C290.057 222.223 288.818 224.39 287.087 226.13L285.887 227.201C285.046 228.138 285.284 228.956 287.261 229.123C289.239 229.29 290.978 228.099 292.471 226.265C293.744 224.42 294.822 222.448 295.688 220.381Z" fill="#FFA8A7"/>
<path d="M277.326 85.2314C276.055 85.9858 274.483 89.2015 274.634 95.8871C274.769 101.572 276.611 102.978 277.541 103.383C278.47 103.788 280.249 103.541 281.98 103.256V106.662C281.98 106.662 279.598 109.449 279.733 111.013C279.868 112.577 283.195 112.943 285.443 111.418C287.065 110.16 288.462 108.635 289.573 106.908L289.533 99.0711C289.533 99.0711 290.557 100.056 292.289 98.5471C293.718 97.3005 294.195 95.1884 293.083 94.0609C292.794 93.7895 292.445 93.5911 292.064 93.4822C291.683 93.3732 291.281 93.3569 290.893 93.4346C290.504 93.5123 290.14 93.6818 289.83 93.9288C289.52 94.1759 289.274 94.4934 289.112 94.8549C289.112 94.8549 288.151 92.1791 284.156 90.8848C280.551 89.6859 278.589 88.3281 277.326 85.2314Z" fill="#FFA8A7"/>
<path d="M280.987 94.466C280.988 94.606 281.029 94.7429 281.106 94.8596C281.183 94.9764 281.293 95.0679 281.422 95.1228C281.551 95.1777 281.693 95.1936 281.83 95.1685C281.968 95.1434 282.095 95.0784 282.196 94.9816C282.298 94.8848 282.368 94.7604 282.399 94.6239C282.43 94.4874 282.42 94.3448 282.371 94.2138C282.322 94.0828 282.235 93.9691 282.122 93.8869C282.009 93.8046 281.874 93.7575 281.734 93.7513C281.638 93.7492 281.543 93.766 281.453 93.8008C281.364 93.8355 281.282 93.8876 281.213 93.954C281.143 94.0204 281.088 94.0998 281.049 94.1876C281.01 94.2755 280.989 94.3701 280.987 94.466Z" fill="#37474F"/>
<path d="M280.797 99.2775L279.137 99.8096C279.166 99.9204 279.217 100.024 279.288 100.115C279.358 100.205 279.446 100.28 279.546 100.336C279.646 100.392 279.756 100.426 279.87 100.438C279.984 100.45 280.1 100.439 280.209 100.405C280.433 100.329 280.619 100.169 280.729 99.959C280.838 99.749 280.862 99.505 280.797 99.2775Z" fill="#F28F8F"/>
<path d="M275.126 92.2667L276.572 91.266C276.511 91.1683 276.43 91.084 276.336 91.0183C276.241 90.9526 276.134 90.9069 276.021 90.8838C275.908 90.8608 275.792 90.861 275.679 90.8844C275.566 90.9077 275.459 90.9538 275.364 91.0198C275.171 91.1562 275.038 91.3625 274.993 91.5951C274.949 91.8277 274.997 92.0685 275.126 92.2667Z" fill="#37474F"/>
<path d="M283.068 92.8068L281.615 91.8061C281.676 91.7086 281.756 91.6245 281.851 91.5586C281.945 91.4928 282.052 91.4467 282.164 91.4229C282.277 91.3992 282.393 91.3984 282.506 91.4206C282.619 91.4428 282.727 91.4874 282.822 91.552C283.014 91.6911 283.147 91.898 283.192 92.1309C283.238 92.3638 283.194 92.6053 283.068 92.8068Z" fill="#37474F"/>
<path d="M275.46 93.9419C275.458 94.0822 275.498 94.2198 275.575 94.3376C275.651 94.4554 275.76 94.5481 275.889 94.6042C276.017 94.6604 276.16 94.6774 276.298 94.6532C276.436 94.629 276.564 94.5646 276.666 94.4681C276.768 94.3717 276.839 94.2473 276.871 94.1106C276.903 93.974 276.893 93.831 276.844 93.6995C276.795 93.568 276.709 93.4538 276.595 93.3712C276.482 93.2887 276.347 93.2413 276.206 93.235C276.014 93.2308 275.828 93.3026 275.688 93.4349C275.548 93.5673 275.466 93.7495 275.46 93.9419Z" fill="#37474F"/>
<path d="M278.827 93.5369L278.716 97.8414L276.453 97.1425L278.827 93.5369Z" fill="#F28F8F"/>
<path d="M281.98 103.256C283.807 103.01 287.539 101.93 288.159 100.445C287.923 101.197 287.463 101.859 286.841 102.343C285.713 103.304 281.98 104.392 281.98 104.392V103.256Z" fill="#F28F8F"/>
<path d="M294.933 126.83L289.922 133.611L293.702 131.189L294.933 126.83Z" fill="#004B6B"/>
<path d="M255.454 144.846C254.382 146.228 253.723 148.912 253.159 149.817C252.595 150.722 251.92 151.508 253.159 151.675C254.398 151.842 256.209 149.42 256.884 147.951C257.226 147.122 257.87 146.455 258.686 146.085C258.107 145.886 258.409 143.56 258.003 143.234C258.003 143.234 255.891 144.1 255.454 144.846Z" fill="#F28F8F"/>
<path d="M255.136 155.327C256.256 154.493 256.296 153.469 256.51 151.841C256.725 150.214 261.212 148.451 261.355 149.666C261.498 150.881 261.903 151.897 260.561 153.374C259.219 154.851 257.185 156.423 255.136 155.327Z" fill="#F28F8F"/>
<path d="M289.573 106.908C289.573 106.908 296.212 107.488 297.514 108.107C298.817 108.726 300.985 112.474 299.047 117.913C297.109 123.352 295.346 129.752 295.545 131.038C295.743 132.325 300.374 138.978 300.374 138.978C299.096 139.921 297.652 140.613 296.117 141.019L293.734 135.842L294.29 141.345C291.897 141.926 289.438 142.193 286.976 142.139C286.976 142.139 284.728 121.002 289.573 106.908Z" fill="#004B6B"/>
<path d="M305.933 132.833C306.465 129.704 305.933 128.68 304.837 125.615L299.278 129.212C299.733 130.369 300.002 131.591 300.072 132.833C300.024 133.738 298.793 142.71 297.641 145.839C297.434 146.395 297.026 146.854 296.498 147.125C295.353 147.824 294.315 148.685 293.416 149.682C292.567 150.476 291.884 150.619 291.971 150.889C292.102 151.181 292.337 151.415 292.63 151.546C292.923 151.676 293.254 151.694 293.559 151.595C294.251 151.371 294.915 151.067 295.537 150.69C294.985 151.858 294.251 152.93 293.361 153.866C291.32 156.042 291.137 157.455 294.949 157.749C297.332 157.932 299.325 156.598 301.477 151.476C302.144 149.599 302.693 147.681 303.121 145.735C304.281 141.297 305.409 135.985 305.933 132.833Z" fill="#FFA8A7"/>
<path d="M297.514 108.107C300.191 109.306 300.953 111.672 301.946 115.15C302.939 118.628 306.052 129.061 306.052 129.061C306.052 129.061 303.383 132.237 299.698 131.348L294.933 119.779C294.933 119.779 292.71 112.228 297.514 108.107Z" fill="#004B6B"/>
</svg>
