<svg width="22" height="22" viewBox="0 0 22 22" fill="none" xmlns="http://www.w3.org/2000/svg">
<path d="M7.93023 21.2326H14.0698C19.186 21.2326 21.2326 19.186 21.2326 14.0698V7.93023C21.2326 2.81395 19.186 0.767442 14.0698 0.767442H7.93023C2.81395 0.767442 0.767442 2.81395 0.767442 7.93023V14.0698C0.767442 19.186 2.81395 21.2326 7.93023 21.2326Z" stroke="#292D32" stroke-width="1.5" stroke-linecap="round" stroke-linejoin="round"/>
<path d="M0.767442 12.0232H4.61488C5.39256 12.0232 6.0986 12.4632 6.44651 13.1591L7.35721 14.9907C7.93023 16.1163 8.95349 16.1163 9.19907 16.1163H12.8112C13.5888 16.1163 14.2949 15.6763 14.6428 14.9805L15.5535 13.1488C15.9014 12.453 16.6074 12.013 17.3851 12.013H21.2121" stroke="#292D32" stroke-width="1.5" stroke-linecap="round" stroke-linejoin="round"/>
</svg>
